<svg width="72" height="23" viewBox="0 0 72 23" fill="none" xmlns="http://www.w3.org/2000/svg">
<path d="M10.08 14.86H5.36L4.66 17H0L5.18 2.84H10.3L15.46 17H10.78L10.08 14.86ZM9 11.52L7.72 7.58L6.44 11.52H9ZM28.4088 5.72V17H23.9688V15.28C23.6221 15.8133 23.1554 16.2467 22.5688 16.58C21.9954 16.9133 21.3088 17.08 20.5088 17.08C19.2154 17.08 18.2021 16.6467 17.4688 15.78C16.7488 14.9133 16.3888 13.74 16.3888 12.26V5.72H20.8088V11.7C20.8088 12.2333 20.9488 12.66 21.2288 12.98C21.5221 13.2867 21.9088 13.44 22.3888 13.44C22.8821 13.44 23.2688 13.2867 23.5488 12.98C23.8288 12.66 23.9688 12.2333 23.9688 11.7V5.72H28.4088ZM37.4341 13.22V17H35.7541C32.6607 17 31.1141 15.46 31.1141 12.38V9.42H29.7141V5.72H31.1141V3H35.5541V5.72H37.3941V9.42H35.5541V12.46C35.5541 12.7267 35.6141 12.92 35.7341 13.04C35.8674 13.16 36.0807 13.22 36.3741 13.22H37.4341ZM44.485 17.14C43.3517 17.14 42.3317 16.9067 41.425 16.44C40.5183 15.9733 39.805 15.3067 39.285 14.44C38.7783 13.56 38.525 12.5333 38.525 11.36C38.525 10.1867 38.7783 9.16667 39.285 8.3C39.805 7.42 40.5183 6.74667 41.425 6.28C42.3317 5.81333 43.3517 5.58 44.485 5.58C45.6183 5.58 46.6383 5.81333 47.545 6.28C48.4517 6.74667 49.1583 7.42 49.665 8.3C50.185 9.16667 50.445 10.1867 50.445 11.36C50.445 12.5333 50.185 13.56 49.665 14.44C49.1583 15.3067 48.4517 15.9733 47.545 16.44C46.6383 16.9067 45.6183 17.14 44.485 17.14ZM44.485 13.3C44.8983 13.3 45.245 13.14 45.525 12.82C45.805 12.4867 45.945 12 45.945 11.36C45.945 10.72 45.805 10.24 45.525 9.92C45.245 9.58667 44.8983 9.42 44.485 9.42C44.0717 9.42 43.725 9.58667 43.445 9.92C43.165 10.24 43.025 10.72 43.025 11.36C43.025 12 43.1583 12.4867 43.425 12.82C43.705 13.14 44.0583 13.3 44.485 13.3ZM57.7398 2.84C59.2198 2.84 60.5132 3.14 61.6198 3.74C62.7398 4.34 63.5998 5.17333 64.1998 6.24C64.7998 7.30667 65.0998 8.52 65.0998 9.88C65.0998 11.2267 64.7998 12.44 64.1998 13.52C63.5998 14.6 62.7398 15.4533 61.6198 16.08C60.5132 16.6933 59.2198 17 57.7398 17H51.8398V2.84H57.7398ZM57.3398 13.04C58.3398 13.04 59.1332 12.7667 59.7198 12.22C60.3065 11.6733 60.5998 10.8933 60.5998 9.88C60.5998 8.86667 60.3065 8.08667 59.7198 7.54C59.1332 6.99333 58.3398 6.72 57.3398 6.72H56.2798V13.04H57.3398ZM68.9031 4.82C68.1298 4.82 67.5098 4.61333 67.0431 4.2C66.5765 3.78667 66.3431 3.26667 66.3431 2.64C66.3431 2 66.5765 1.47333 67.0431 1.06C67.5098 0.633332 68.1298 0.419999 68.9031 0.419999C69.6631 0.419999 70.2765 0.633332 70.7431 1.06C71.2098 1.47333 71.4431 2 71.4431 2.64C71.4431 3.26667 71.2098 3.78667 70.7431 4.2C70.2765 4.61333 69.6631 4.82 68.9031 4.82ZM71.1431 17.78C71.1431 20.86 69.5965 22.4 66.5031 22.4H65.0231V18.62H65.8831C66.1765 18.62 66.3831 18.56 66.5031 18.44C66.6365 18.32 66.7031 18.1267 66.7031 17.86V5.72H71.1431V17.78Z" fill="white"/>
</svg>
