<svg width="311" height="23" viewBox="0 0 311 23" fill="none" xmlns="http://www.w3.org/2000/svg">
<path d="M0.7 10C0.7 8.62667 1.00667 7.4 1.62 6.32C2.24667 5.22667 3.09333 4.38 4.16 3.78C5.24 3.16667 6.44667 2.86 7.78 2.86C9.34 2.86 10.7067 3.26 11.88 4.06C13.0533 4.86 13.8733 5.96667 14.34 7.38H11.12C10.8 6.71333 10.3467 6.21333 9.76 5.88C9.18667 5.54667 8.52 5.38 7.76 5.38C6.94667 5.38 6.22 5.57333 5.58 5.96C4.95333 6.33333 4.46 6.86667 4.1 7.56C3.75333 8.25333 3.58 9.06667 3.58 10C3.58 10.92 3.75333 11.7333 4.1 12.44C4.46 13.1333 4.95333 13.6733 5.58 14.06C6.22 14.4333 6.94667 14.62 7.76 14.62C8.52 14.62 9.18667 14.4533 9.76 14.12C10.3467 13.7733 10.8 13.2667 11.12 12.6H14.34C13.8733 14.0267 13.0533 15.14 11.88 15.94C10.72 16.7267 9.35333 17.12 7.78 17.12C6.44667 17.12 5.24 16.82 4.16 16.22C3.09333 15.6067 2.24667 14.76 1.62 13.68C1.00667 12.6 0.7 11.3733 0.7 10ZM21.6516 17.18C20.5849 17.18 19.6249 16.9467 18.7716 16.48C17.9182 16 17.2449 15.3267 16.7516 14.46C16.2716 13.5933 16.0316 12.5933 16.0316 11.46C16.0316 10.3267 16.2782 9.32667 16.7716 8.46C17.2782 7.59333 17.9649 6.92667 18.8316 6.46C19.6982 5.98 20.6649 5.74 21.7316 5.74C22.7982 5.74 23.7649 5.98 24.6316 6.46C25.4982 6.92667 26.1782 7.59333 26.6716 8.46C27.1782 9.32667 27.4316 10.3267 27.4316 11.46C27.4316 12.5933 27.1716 13.5933 26.6516 14.46C26.1449 15.3267 25.4516 16 24.5716 16.48C23.7049 16.9467 22.7316 17.18 21.6516 17.18ZM21.6516 14.74C22.1582 14.74 22.6316 14.62 23.0716 14.38C23.5249 14.1267 23.8849 13.7533 24.1516 13.26C24.4182 12.7667 24.5516 12.1667 24.5516 11.46C24.5516 10.4067 24.2716 9.6 23.7116 9.04C23.1649 8.46667 22.4916 8.18 21.6916 8.18C20.8916 8.18 20.2182 8.46667 19.6716 9.04C19.1382 9.6 18.8716 10.4067 18.8716 11.46C18.8716 12.5133 19.1316 13.3267 19.6516 13.9C20.1849 14.46 20.8516 14.74 21.6516 14.74ZM32.2855 7.52C32.6455 7.01333 33.1388 6.59333 33.7655 6.26C34.4055 5.91333 35.1321 5.74 35.9455 5.74C36.8921 5.74 37.7455 5.97333 38.5055 6.44C39.2788 6.90667 39.8855 7.57333 40.3255 8.44C40.7788 9.29333 41.0055 10.2867 41.0055 11.42C41.0055 12.5533 40.7788 13.56 40.3255 14.44C39.8855 15.3067 39.2788 15.98 38.5055 16.46C37.7455 16.94 36.8921 17.18 35.9455 17.18C35.1321 17.18 34.4121 17.0133 33.7855 16.68C33.1721 16.3467 32.6721 15.9267 32.2855 15.42V22.28H29.4855V5.92H32.2855V7.52ZM38.1455 11.42C38.1455 10.7533 38.0055 10.18 37.7255 9.7C37.4588 9.20667 37.0988 8.83333 36.6455 8.58C36.2055 8.32667 35.7255 8.2 35.2055 8.2C34.6988 8.2 34.2188 8.33333 33.7655 8.6C33.3255 8.85333 32.9655 9.22667 32.6855 9.72C32.4188 10.2133 32.2855 10.7933 32.2855 11.46C32.2855 12.1267 32.4188 12.7067 32.6855 13.2C32.9655 13.6933 33.3255 14.0733 33.7655 14.34C34.2188 14.5933 34.6988 14.72 35.2055 14.72C35.7255 14.72 36.2055 14.5867 36.6455 14.32C37.0988 14.0533 37.4588 13.6733 37.7255 13.18C38.0055 12.6867 38.1455 12.1 38.1455 11.42ZM53.6402 5.92L46.7802 22.24H43.8002L46.2002 16.72L41.7602 5.92H44.9002L47.7602 13.66L50.6602 5.92H53.6402ZM57.9495 7.64C58.3095 7.05333 58.7762 6.59333 59.3495 6.26C59.9362 5.92667 60.6029 5.76 61.3495 5.76V8.7H60.6095C59.7295 8.7 59.0629 8.90667 58.6095 9.32C58.1695 9.73333 57.9495 10.4533 57.9495 11.48V17H55.1495V5.92H57.9495V7.64ZM64.6555 4.6C64.1621 4.6 63.7488 4.44667 63.4155 4.14C63.0955 3.82 62.9355 3.42667 62.9355 2.96C62.9355 2.49333 63.0955 2.10667 63.4155 1.8C63.7488 1.48 64.1621 1.32 64.6555 1.32C65.1488 1.32 65.5555 1.48 65.8755 1.8C66.2088 2.10667 66.3755 2.49333 66.3755 2.96C66.3755 3.42667 66.2088 3.82 65.8755 4.14C65.5555 4.44667 65.1488 4.6 64.6555 4.6ZM66.0355 5.92V17H63.2355V5.92H66.0355ZM73.1419 5.74C73.9685 5.74 74.6952 5.90667 75.3219 6.24C75.9485 6.56 76.4419 6.98 76.8019 7.5V5.92H79.6219V17.08C79.6219 18.1067 79.4152 19.02 79.0019 19.82C78.5885 20.6333 77.9685 21.2733 77.1419 21.74C76.3152 22.22 75.3152 22.46 74.1419 22.46C72.5685 22.46 71.2752 22.0933 70.2619 21.36C69.2619 20.6267 68.6952 19.6267 68.5619 18.36H71.3419C71.4885 18.8667 71.8019 19.2667 72.2819 19.56C72.7752 19.8667 73.3685 20.02 74.0619 20.02C74.8752 20.02 75.5352 19.7733 76.0419 19.28C76.5485 18.8 76.8019 18.0667 76.8019 17.08V15.36C76.4419 15.88 75.9419 16.3133 75.3019 16.66C74.6752 17.0067 73.9552 17.18 73.1419 17.18C72.2085 17.18 71.3552 16.94 70.5819 16.46C69.8085 15.98 69.1952 15.3067 68.7419 14.44C68.3019 13.56 68.0819 12.5533 68.0819 11.42C68.0819 10.3 68.3019 9.30667 68.7419 8.44C69.1952 7.57333 69.8019 6.90667 70.5619 6.44C71.3352 5.97333 72.1952 5.74 73.1419 5.74ZM76.8019 11.46C76.8019 10.78 76.6685 10.2 76.4019 9.72C76.1352 9.22667 75.7752 8.85333 75.3219 8.6C74.8685 8.33333 74.3819 8.2 73.8619 8.2C73.3419 8.2 72.8619 8.32667 72.4219 8.58C71.9819 8.83333 71.6219 9.20667 71.3419 9.7C71.0752 10.18 70.9419 10.7533 70.9419 11.42C70.9419 12.0867 71.0752 12.6733 71.3419 13.18C71.6219 13.6733 71.9819 14.0533 72.4219 14.32C72.8752 14.5867 73.3552 14.72 73.8619 14.72C74.3819 14.72 74.8685 14.5933 75.3219 14.34C75.7752 14.0733 76.1352 13.7 76.4019 13.22C76.6685 12.7267 76.8019 12.14 76.8019 11.46ZM88.5966 5.76C89.4366 5.76 90.1832 5.94667 90.8366 6.32C91.4899 6.68 91.9966 7.22 92.3566 7.94C92.7299 8.64667 92.9166 9.5 92.9166 10.5V17H90.1166V10.88C90.1166 10 89.8966 9.32667 89.4566 8.86C89.0166 8.38 88.4166 8.14 87.6566 8.14C86.8832 8.14 86.2699 8.38 85.8166 8.86C85.3766 9.32667 85.1566 10 85.1566 10.88V17H82.3566V2.2H85.1566V7.3C85.5166 6.82 85.9966 6.44667 86.5966 6.18C87.1966 5.9 87.8632 5.76 88.5966 5.76ZM98.8392 8.22V13.58C98.8392 13.9533 98.9259 14.2267 99.0992 14.4C99.2859 14.56 99.5926 14.64 100.019 14.64H101.319V17H99.5592C97.1992 17 96.0192 15.8533 96.0192 13.56V8.22H94.6992V5.92H96.0192V3.18H98.8392V5.92H101.319V8.22H98.8392ZM114.579 2.84C115.939 2.84 117.145 3.14667 118.199 3.76C119.265 4.36 120.092 5.20667 120.679 6.3C121.279 7.38 121.579 8.61333 121.579 10C121.579 11.3867 121.279 12.6267 120.679 13.72C120.092 14.8 119.265 15.6467 118.199 16.26C117.145 16.86 115.939 17.16 114.579 17.16C113.205 17.16 111.985 16.86 110.919 16.26C109.865 15.6467 109.039 14.8 108.439 13.72C107.852 12.6267 107.559 11.3867 107.559 10C107.559 8.61333 107.852 7.38 108.439 6.3C109.039 5.20667 109.865 4.36 110.919 3.76C111.985 3.14667 113.205 2.84 114.579 2.84ZM114.579 3.86C113.379 3.86 112.332 4.11333 111.439 4.62C110.545 5.11333 109.859 5.82667 109.379 6.76C108.899 7.68 108.659 8.76 108.659 10C108.659 11.2267 108.899 12.3067 109.379 13.24C109.859 14.16 110.545 14.88 111.439 15.4C112.332 15.9067 113.379 16.16 114.579 16.16C115.765 16.16 116.805 15.9067 117.699 15.4C118.592 14.88 119.279 14.16 119.759 13.24C120.239 12.3067 120.479 11.2267 120.479 10C120.479 8.76 120.239 7.68 119.759 6.76C119.279 5.82667 118.592 5.11333 117.699 4.62C116.819 4.11333 115.779 3.86 114.579 3.86ZM114.559 5.44C113.719 5.44 112.965 5.62667 112.299 6C111.632 6.37333 111.105 6.90667 110.719 7.6C110.345 8.28 110.159 9.07333 110.159 9.98C110.159 10.8867 110.345 11.6867 110.719 12.38C111.105 13.0733 111.632 13.6067 112.299 13.98C112.965 14.3533 113.719 14.54 114.559 14.54C115.585 14.54 116.472 14.26 117.219 13.7C117.965 13.1267 118.452 12.3733 118.679 11.44H116.219C116.072 11.8133 115.859 12.1 115.579 12.3C115.312 12.5 114.952 12.6 114.499 12.6C113.885 12.6 113.399 12.38 113.039 11.94C112.692 11.4867 112.519 10.8333 112.519 9.98C112.519 9.12667 112.692 8.48 113.039 8.04C113.399 7.6 113.885 7.38 114.499 7.38C114.925 7.38 115.285 7.48 115.579 7.68C115.885 7.88 116.099 8.16667 116.219 8.54H118.679C118.452 7.58 117.965 6.82667 117.219 6.28C116.485 5.72 115.599 5.44 114.559 5.44ZM135.768 17L132.688 11.56H131.368V17H128.568V3.04H133.808C134.888 3.04 135.808 3.23333 136.568 3.62C137.328 3.99333 137.894 4.50667 138.268 5.16C138.654 5.8 138.848 6.52 138.848 7.32C138.848 8.24 138.581 9.07333 138.048 9.82C137.514 10.5533 136.721 11.06 135.668 11.34L139.008 17H135.768ZM131.368 9.46H133.708C134.468 9.46 135.034 9.28 135.408 8.92C135.781 8.54667 135.968 8.03333 135.968 7.38C135.968 6.74 135.781 6.24667 135.408 5.9C135.034 5.54 134.468 5.36 133.708 5.36H131.368V9.46ZM140.66 11.42C140.66 10.3 140.88 9.30667 141.32 8.44C141.773 7.57333 142.38 6.90667 143.14 6.44C143.913 5.97333 144.773 5.74 145.72 5.74C146.547 5.74 147.267 5.90667 147.88 6.24C148.507 6.57333 149.007 6.99333 149.38 7.5V5.92H152.2V17H149.38V15.38C149.02 15.9 148.52 16.3333 147.88 16.68C147.253 17.0133 146.527 17.18 145.7 17.18C144.767 17.18 143.913 16.94 143.14 16.46C142.38 15.98 141.773 15.3067 141.32 14.44C140.88 13.56 140.66 12.5533 140.66 11.42ZM149.38 11.46C149.38 10.78 149.247 10.2 148.98 9.72C148.713 9.22667 148.353 8.85333 147.9 8.6C147.447 8.33333 146.96 8.2 146.44 8.2C145.92 8.2 145.44 8.32667 145 8.58C144.56 8.83333 144.2 9.20667 143.92 9.7C143.653 10.18 143.52 10.7533 143.52 11.42C143.52 12.0867 143.653 12.6733 143.92 13.18C144.2 13.6733 144.56 14.0533 145 14.32C145.453 14.5867 145.933 14.72 146.44 14.72C146.96 14.72 147.447 14.5933 147.9 14.34C148.353 14.0733 148.713 13.7 148.98 13.22C149.247 12.7267 149.38 12.14 149.38 11.46ZM149 3.04L144.4 5.14V3.14L149 0.759999V3.04ZM154.215 11.42C154.215 10.3 154.435 9.30667 154.875 8.44C155.328 7.57333 155.941 6.90667 156.715 6.44C157.488 5.97333 158.348 5.74 159.295 5.74C160.015 5.74 160.701 5.9 161.355 6.22C162.008 6.52667 162.528 6.94 162.915 7.46V2.2H165.755V17H162.915V15.36C162.568 15.9067 162.081 16.3467 161.455 16.68C160.828 17.0133 160.101 17.18 159.275 17.18C158.341 17.18 157.488 16.94 156.715 16.46C155.941 15.98 155.328 15.3067 154.875 14.44C154.435 13.56 154.215 12.5533 154.215 11.42ZM162.935 11.46C162.935 10.78 162.801 10.2 162.535 9.72C162.268 9.22667 161.908 8.85333 161.455 8.6C161.001 8.33333 160.515 8.2 159.995 8.2C159.475 8.2 158.995 8.32667 158.555 8.58C158.115 8.83333 157.755 9.20667 157.475 9.7C157.208 10.18 157.075 10.7533 157.075 11.42C157.075 12.0867 157.208 12.6733 157.475 13.18C157.755 13.6733 158.115 14.0533 158.555 14.32C159.008 14.5867 159.488 14.72 159.995 14.72C160.515 14.72 161.001 14.5933 161.455 14.34C161.908 14.0733 162.268 13.7 162.535 13.22C162.801 12.7267 162.935 12.14 162.935 11.46ZM169.909 4.6C169.416 4.6 169.003 4.44667 168.669 4.14C168.349 3.82 168.189 3.42667 168.189 2.96C168.189 2.49333 168.349 2.10667 168.669 1.8C169.003 1.48 169.416 1.32 169.909 1.32C170.403 1.32 170.809 1.48 171.129 1.8C171.463 2.10667 171.629 2.49333 171.629 2.96C171.629 3.42667 171.463 3.82 171.129 4.14C170.809 4.44667 170.403 4.6 169.909 4.6ZM171.289 5.92V17H168.489V5.92H171.289ZM178.976 17.18C177.909 17.18 176.949 16.9467 176.096 16.48C175.242 16 174.569 15.3267 174.076 14.46C173.596 13.5933 173.356 12.5933 173.356 11.46C173.356 10.3267 173.602 9.32667 174.096 8.46C174.602 7.59333 175.289 6.92667 176.156 6.46C177.022 5.98 177.989 5.74 179.056 5.74C180.122 5.74 181.089 5.98 181.956 6.46C182.822 6.92667 183.502 7.59333 183.996 8.46C184.502 9.32667 184.756 10.3267 184.756 11.46C184.756 12.5933 184.496 13.5933 183.976 14.46C183.469 15.3267 182.776 16 181.896 16.48C181.029 16.9467 180.056 17.18 178.976 17.18ZM178.976 14.74C179.482 14.74 179.956 14.62 180.396 14.38C180.849 14.1267 181.209 13.7533 181.476 13.26C181.742 12.7667 181.876 12.1667 181.876 11.46C181.876 10.4067 181.596 9.6 181.036 9.04C180.489 8.46667 179.816 8.18 179.016 8.18C178.216 8.18 177.542 8.46667 176.996 9.04C176.462 9.6 176.196 10.4067 176.196 11.46C176.196 12.5133 176.456 13.3267 176.976 13.9C177.509 14.46 178.176 14.74 178.976 14.74ZM186.13 10C186.13 8.62667 186.436 7.4 187.05 6.32C187.676 5.22667 188.523 4.38 189.59 3.78C190.67 3.16667 191.876 2.86 193.21 2.86C194.77 2.86 196.136 3.26 197.31 4.06C198.483 4.86 199.303 5.96667 199.77 7.38H196.55C196.23 6.71333 195.776 6.21333 195.19 5.88C194.616 5.54667 193.95 5.38 193.19 5.38C192.376 5.38 191.65 5.57333 191.01 5.96C190.383 6.33333 189.89 6.86667 189.53 7.56C189.183 8.25333 189.01 9.06667 189.01 10C189.01 10.92 189.183 11.7333 189.53 12.44C189.89 13.1333 190.383 13.6733 191.01 14.06C191.65 14.4333 192.376 14.62 193.19 14.62C193.95 14.62 194.616 14.4533 195.19 14.12C195.776 13.7733 196.23 13.2667 196.55 12.6H199.77C199.303 14.0267 198.483 15.14 197.31 15.94C196.15 16.7267 194.783 17.12 193.21 17.12C191.876 17.12 190.67 16.82 189.59 16.22C188.523 15.6067 187.676 14.76 187.05 13.68C186.436 12.6 186.13 11.3733 186.13 10ZM204.961 7.64C205.321 7.05333 205.788 6.59333 206.361 6.26C206.948 5.92667 207.615 5.76 208.361 5.76V8.7H207.621C206.741 8.7 206.075 8.90667 205.621 9.32C205.181 9.73333 204.961 10.4533 204.961 11.48V17H202.161V5.92H204.961V7.64ZM209.527 11.42C209.527 10.3 209.747 9.30667 210.187 8.44C210.641 7.57333 211.247 6.90667 212.007 6.44C212.781 5.97333 213.641 5.74 214.587 5.74C215.414 5.74 216.134 5.90667 216.747 6.24C217.374 6.57333 217.874 6.99333 218.247 7.5V5.92H221.067V17H218.247V15.38C217.887 15.9 217.387 16.3333 216.747 16.68C216.121 17.0133 215.394 17.18 214.567 17.18C213.634 17.18 212.781 16.94 212.007 16.46C211.247 15.98 210.641 15.3067 210.187 14.44C209.747 13.56 209.527 12.5533 209.527 11.42ZM218.247 11.46C218.247 10.78 218.114 10.2 217.847 9.72C217.581 9.22667 217.221 8.85333 216.767 8.6C216.314 8.33333 215.827 8.2 215.307 8.2C214.787 8.2 214.307 8.32667 213.867 8.58C213.427 8.83333 213.067 9.20667 212.787 9.7C212.521 10.18 212.387 10.7533 212.387 11.42C212.387 12.0867 212.521 12.6733 212.787 13.18C213.067 13.6733 213.427 14.0533 213.867 14.32C214.321 14.5867 214.801 14.72 215.307 14.72C215.827 14.72 216.314 14.5933 216.767 14.34C217.221 14.0733 217.581 13.7 217.847 13.22C218.114 12.7267 218.247 12.14 218.247 11.46ZM226.362 14.7H231.302V17H223.182V14.74L228.022 8.22H223.202V5.92H231.242V8.18L226.362 14.7ZM236.03 14.7H240.97V17H232.85V14.74L237.69 8.22H232.87V5.92H240.91V8.18L236.03 14.7ZM254.238 3.04L249.518 12.14V17H246.718V12.14L241.978 3.04H245.138L248.138 9.42L251.118 3.04H254.238ZM261.178 13.84C262.458 12.7733 263.478 11.8867 264.238 11.18C264.998 10.46 265.632 9.71333 266.138 8.94C266.645 8.16667 266.898 7.40667 266.898 6.66C266.898 5.98 266.738 5.44667 266.418 5.06C266.098 4.67333 265.605 4.48 264.938 4.48C264.272 4.48 263.758 4.70667 263.398 5.16C263.038 5.6 262.852 6.20667 262.838 6.98H260.118C260.172 5.38 260.645 4.16667 261.538 3.34C262.445 2.51333 263.592 2.1 264.978 2.1C266.498 2.1 267.665 2.50667 268.478 3.32C269.292 4.12 269.698 5.18 269.698 6.5C269.698 7.54 269.418 8.53333 268.858 9.48C268.298 10.4267 267.658 11.2533 266.938 11.96C266.218 12.6533 265.278 13.4933 264.118 14.48H270.018V16.8H260.138V14.72L261.178 13.84ZM271.783 9.52C271.783 7.21333 272.196 5.40667 273.023 4.1C273.863 2.79333 275.249 2.14 277.183 2.14C279.116 2.14 280.496 2.79333 281.323 4.1C282.163 5.40667 282.583 7.21333 282.583 9.52C282.583 11.84 282.163 13.66 281.323 14.98C280.496 16.3 279.116 16.96 277.183 16.96C275.249 16.96 273.863 16.3 273.023 14.98C272.196 13.66 271.783 11.84 271.783 9.52ZM279.823 9.52C279.823 8.53333 279.756 7.70667 279.623 7.04C279.503 6.36 279.249 5.80667 278.863 5.38C278.489 4.95333 277.929 4.74 277.183 4.74C276.436 4.74 275.869 4.95333 275.483 5.38C275.109 5.80667 274.856 6.36 274.723 7.04C274.603 7.70667 274.543 8.53333 274.543 9.52C274.543 10.5333 274.603 11.3867 274.723 12.08C274.843 12.76 275.096 13.3133 275.483 13.74C275.869 14.1533 276.436 14.36 277.183 14.36C277.929 14.36 278.496 14.1533 278.883 13.74C279.269 13.3133 279.523 12.76 279.643 12.08C279.763 11.3867 279.823 10.5333 279.823 9.52ZM285.592 13.84C286.872 12.7733 287.892 11.8867 288.652 11.18C289.412 10.46 290.046 9.71333 290.552 8.94C291.059 8.16667 291.312 7.40667 291.312 6.66C291.312 5.98 291.152 5.44667 290.832 5.06C290.512 4.67333 290.019 4.48 289.352 4.48C288.686 4.48 288.172 4.70667 287.812 5.16C287.452 5.6 287.266 6.20667 287.252 6.98H284.532C284.586 5.38 285.059 4.16667 285.952 3.34C286.859 2.51333 288.006 2.1 289.392 2.1C290.912 2.1 292.079 2.50667 292.892 3.32C293.706 4.12 294.112 5.18 294.112 6.5C294.112 7.54 293.832 8.53333 293.272 9.48C292.712 10.4267 292.072 11.2533 291.352 11.96C290.632 12.6533 289.692 13.4933 288.532 14.48H294.432V16.8H284.552V14.72L285.592 13.84ZM297.077 13.84C298.357 12.7733 299.377 11.8867 300.137 11.18C300.897 10.46 301.53 9.71333 302.037 8.94C302.543 8.16667 302.797 7.40667 302.797 6.66C302.797 5.98 302.637 5.44667 302.317 5.06C301.997 4.67333 301.503 4.48 300.837 4.48C300.17 4.48 299.657 4.70667 299.297 5.16C298.937 5.6 298.75 6.20667 298.737 6.98H296.017C296.07 5.38 296.543 4.16667 297.437 3.34C298.343 2.51333 299.49 2.1 300.877 2.1C302.397 2.1 303.563 2.50667 304.377 3.32C305.19 4.12 305.597 5.18 305.597 6.5C305.597 7.54 305.317 8.53333 304.757 9.48C304.197 10.4267 303.557 11.2533 302.837 11.96C302.117 12.6533 301.177 13.4933 300.017 14.48H305.917V16.8H296.037V14.72L297.077 13.84ZM309.241 17.14C308.734 17.14 308.314 16.9867 307.981 16.68C307.661 16.36 307.501 15.9667 307.501 15.5C307.501 15.0333 307.661 14.6467 307.981 14.34C308.314 14.02 308.734 13.86 309.241 13.86C309.734 13.86 310.141 14.02 310.461 14.34C310.781 14.6467 310.941 15.0333 310.941 15.5C310.941 15.9667 310.781 16.36 310.461 16.68C310.141 16.9867 309.734 17.14 309.241 17.14Z" fill="#DD51CB"/>
</svg>
