<svg width="148" height="39" viewBox="0 0 148 39" fill="none" xmlns="http://www.w3.org/2000/svg">
<g filter="url(#filter0_d_13_201)">
<path d="M14.06 4.62C16.724 4.62 19.052 5.16 21.044 6.24C23.06 7.296 24.608 8.784 25.688 10.704C26.768 12.624 27.308 14.82 27.308 17.292C27.308 19.74 26.756 21.924 25.652 23.844C24.572 25.764 23.024 27.276 21.008 28.38C19.016 29.46 16.7 30 14.06 30H4.016V4.62H14.06ZM13.52 23.772C15.584 23.772 17.204 23.208 18.38 22.08C19.556 20.952 20.144 19.356 20.144 17.292C20.144 15.204 19.556 13.596 18.38 12.468C17.204 11.316 15.584 10.74 13.52 10.74H11.072V23.772H13.52ZM34.0527 7.932C32.8047 7.932 31.7967 7.596 31.0287 6.924C30.2847 6.228 29.9127 5.364 29.9127 4.332C29.9127 3.276 30.2847 2.4 31.0287 1.704C31.7967 1.008 32.8047 0.659998 34.0527 0.659998C35.2767 0.659998 36.2607 1.008 37.0047 1.704C37.7727 2.4 38.1567 3.276 38.1567 4.332C38.1567 5.364 37.7727 6.228 37.0047 6.924C36.2607 7.596 35.2767 7.932 34.0527 7.932ZM37.5447 9.804V30H30.4887V9.804H37.5447ZM50.1669 30.252C48.3429 30.252 46.7109 29.952 45.2709 29.352C43.8549 28.728 42.7269 27.888 41.8869 26.832C41.0709 25.752 40.6149 24.54 40.5189 23.196H47.3589C47.4549 23.844 47.7549 24.348 48.2589 24.708C48.7629 25.068 49.3869 25.248 50.1309 25.248C50.7069 25.248 51.1629 25.128 51.4989 24.888C51.8349 24.648 52.0029 24.336 52.0029 23.952C52.0029 23.448 51.7269 23.076 51.1749 22.836C50.6229 22.596 49.7109 22.332 48.4389 22.044C46.9989 21.756 45.7989 21.432 44.8389 21.072C43.8789 20.712 43.0389 20.124 42.3189 19.308C41.6229 18.492 41.2749 17.388 41.2749 15.996C41.2749 14.796 41.5989 13.716 42.2469 12.756C42.8949 11.772 43.8429 10.992 45.0909 10.416C46.3629 9.84 47.8869 9.552 49.6629 9.552C52.3029 9.552 54.3789 10.2 55.8909 11.496C57.4029 12.792 58.2789 14.496 58.5189 16.608H52.1469C52.0269 15.96 51.7389 15.468 51.2829 15.132C50.8509 14.772 50.2629 14.592 49.5189 14.592C48.9429 14.592 48.4989 14.7 48.1869 14.916C47.8989 15.132 47.7549 15.432 47.7549 15.816C47.7549 16.296 48.0309 16.668 48.5829 16.932C49.1349 17.172 50.0229 17.424 51.2469 17.688C52.7109 18 53.9229 18.348 54.8829 18.732C55.8669 19.116 56.7189 19.74 57.4389 20.604C58.1829 21.444 58.5549 22.596 58.5549 24.06C58.5549 25.236 58.2069 26.292 57.5109 27.228C56.8389 28.164 55.8669 28.908 54.5949 29.46C53.3469 29.988 51.8709 30.252 50.1669 30.252ZM60.8718 19.884C60.8718 17.796 61.3038 15.972 62.1678 14.412C63.0318 12.852 64.2318 11.652 65.7678 10.812C67.3278 9.972 69.1038 9.552 71.0958 9.552C73.6638 9.552 75.8238 10.26 77.5758 11.676C79.3278 13.068 80.4558 15.024 80.9598 17.544H73.4718C73.0398 16.224 72.1998 15.564 70.9518 15.564C70.0638 15.564 69.3558 15.936 68.8278 16.68C68.3238 17.4 68.0718 18.468 68.0718 19.884C68.0718 21.3 68.3238 22.38 68.8278 23.124C69.3558 23.868 70.0638 24.24 70.9518 24.24C72.2238 24.24 73.0638 23.58 73.4718 22.26H80.9598C80.4558 24.756 79.3278 26.712 77.5758 28.128C75.8238 29.544 73.6638 30.252 71.0958 30.252C69.1038 30.252 67.3278 29.832 65.7678 28.992C64.2318 28.152 63.0318 26.952 62.1678 25.392C61.3038 23.832 60.8718 21.996 60.8718 19.884ZM93.287 30.252C91.271 30.252 89.459 29.832 87.851 28.992C86.267 28.152 85.019 26.952 84.107 25.392C83.195 23.832 82.739 21.996 82.739 19.884C82.739 17.796 83.195 15.972 84.107 14.412C85.043 12.852 86.303 11.652 87.887 10.812C89.495 9.972 91.307 9.552 93.323 9.552C95.339 9.552 97.139 9.972 98.723 10.812C100.331 11.652 101.591 12.852 102.503 14.412C103.439 15.972 103.907 17.796 103.907 19.884C103.907 21.972 103.439 23.808 102.503 25.392C101.591 26.952 100.331 28.152 98.723 28.992C97.115 29.832 95.303 30.252 93.287 30.252ZM93.287 24.132C94.271 24.132 95.087 23.772 95.735 23.052C96.407 22.308 96.743 21.252 96.743 19.884C96.743 18.516 96.407 17.472 95.735 16.752C95.087 16.032 94.283 15.672 93.323 15.672C92.363 15.672 91.559 16.032 90.911 16.752C90.263 17.472 89.939 18.516 89.939 19.884C89.939 21.276 90.251 22.332 90.875 23.052C91.499 23.772 92.303 24.132 93.287 24.132ZM113.834 13.368C114.626 12.216 115.586 11.304 116.714 10.632C117.842 9.96 119.054 9.624 120.35 9.624V17.148H118.37C116.834 17.148 115.694 17.448 114.95 18.048C114.206 18.648 113.834 19.692 113.834 21.18V30H106.778V9.804H113.834V13.368ZM121.727 19.884C121.727 17.796 122.099 15.972 122.843 14.412C123.611 12.852 124.655 11.652 125.975 10.812C127.295 9.972 128.759 9.552 130.367 9.552C131.663 9.552 132.815 9.828 133.823 10.38C134.855 10.908 135.659 11.64 136.235 12.576V3.36H143.327V30H136.235V27.192C135.683 28.128 134.903 28.872 133.895 29.424C132.887 29.976 131.699 30.252 130.331 30.252C128.723 30.252 127.259 29.832 125.939 28.992C124.643 28.152 123.611 26.952 122.843 25.392C122.099 23.808 121.727 21.972 121.727 19.884ZM136.271 19.884C136.271 18.588 135.911 17.568 135.191 16.824C134.495 16.08 133.631 15.708 132.599 15.708C131.543 15.708 130.667 16.08 129.971 16.824C129.275 17.544 128.927 18.564 128.927 19.884C128.927 21.18 129.275 22.212 129.971 22.98C130.667 23.724 131.543 24.096 132.599 24.096C133.631 24.096 134.495 23.724 135.191 22.98C135.911 22.236 136.271 21.204 136.271 19.884Z" fill="white"/>
</g>
<defs>
<filter id="filter0_d_13_201" x="0.0159912" y="0.660004" width="147.311" height="37.592" filterUnits="userSpaceOnUse" color-interpolation-filters="sRGB">
<feFlood flood-opacity="0" result="BackgroundImageFix"/>
<feColorMatrix in="SourceAlpha" type="matrix" values="0 0 0 0 0 0 0 0 0 0 0 0 0 0 0 0 0 0 127 0" result="hardAlpha"/>
<feOffset dy="4"/>
<feGaussianBlur stdDeviation="2"/>
<feComposite in2="hardAlpha" operator="out"/>
<feColorMatrix type="matrix" values="0 0 0 0 0 0 0 0 0 0 0 0 0 0 0 0 0 0 0.25 0"/>
<feBlend mode="normal" in2="BackgroundImageFix" result="effect1_dropShadow_13_201"/>
<feBlend mode="normal" in="SourceGraphic" in2="effect1_dropShadow_13_201" result="shape"/>
</filter>
</defs>
</svg>
