<svg width="455" height="23" viewBox="0 0 455 23" fill="none" xmlns="http://www.w3.org/2000/svg">
<path d="M3.18 5.3V8.8H7.88V11.02H3.18V14.72H8.48V17H0.38V3.02H8.48V5.3H3.18ZM15.2645 17.18C14.3579 17.18 13.5445 17.02 12.8245 16.7C12.1045 16.3667 11.5312 15.92 11.1045 15.36C10.6912 14.8 10.4645 14.18 10.4245 13.5H13.2445C13.2979 13.9267 13.5045 14.28 13.8645 14.56C14.2379 14.84 14.6979 14.98 15.2445 14.98C15.7779 14.98 16.1912 14.8733 16.4845 14.66C16.7912 14.4467 16.9445 14.1733 16.9445 13.84C16.9445 13.48 16.7579 13.2133 16.3845 13.04C16.0245 12.8533 15.4445 12.6533 14.6445 12.44C13.8179 12.24 13.1379 12.0333 12.6045 11.82C12.0845 11.6067 11.6312 11.28 11.2445 10.84C10.8712 10.4 10.6845 9.80667 10.6845 9.06C10.6845 8.44667 10.8579 7.88667 11.2045 7.38C11.5645 6.87333 12.0712 6.47333 12.7245 6.18C13.3912 5.88667 14.1712 5.74 15.0645 5.74C16.3845 5.74 17.4379 6.07333 18.2245 6.74C19.0112 7.39333 19.4445 8.28 19.5245 9.4H16.8445C16.8045 8.96 16.6179 8.61333 16.2845 8.36C15.9645 8.09333 15.5312 7.96 14.9845 7.96C14.4779 7.96 14.0845 8.05333 13.8045 8.24C13.5379 8.42667 13.4045 8.68667 13.4045 9.02C13.4045 9.39333 13.5912 9.68 13.9645 9.88C14.3379 10.0667 14.9179 10.26 15.7045 10.46C16.5045 10.66 17.1645 10.8667 17.6845 11.08C18.2045 11.2933 18.6512 11.6267 19.0245 12.08C19.4112 12.52 19.6112 13.1067 19.6245 13.84C19.6245 14.48 19.4445 15.0533 19.0845 15.56C18.7379 16.0667 18.2312 16.4667 17.5645 16.76C16.9112 17.04 16.1445 17.18 15.2645 17.18ZM25.183 8.22V13.58C25.183 13.9533 25.2696 14.2267 25.443 14.4C25.6296 14.56 25.9363 14.64 26.363 14.64H27.663V17H25.903C23.543 17 22.363 15.8533 22.363 13.56V8.22H21.043V5.92H22.363V3.18H25.183V5.92H27.663V8.22H25.183ZM39.9769 11.22C39.9769 11.62 39.9502 11.98 39.8969 12.3H31.7969C31.8635 13.1 32.1435 13.7267 32.6369 14.18C33.1302 14.6333 33.7369 14.86 34.4569 14.86C35.4969 14.86 36.2369 14.4133 36.6769 13.52H39.6969C39.3769 14.5867 38.7635 15.4667 37.8569 16.16C36.9502 16.84 35.8369 17.18 34.5169 17.18C33.4502 17.18 32.4902 16.9467 31.6369 16.48C30.7969 16 30.1369 15.3267 29.6569 14.46C29.1902 13.5933 28.9569 12.5933 28.9569 11.46C28.9569 10.3133 29.1902 9.30667 29.6569 8.44C30.1235 7.57333 30.7769 6.90667 31.6169 6.44C32.4569 5.97333 33.4235 5.74 34.5169 5.74C35.5702 5.74 36.5102 5.96667 37.3369 6.42C38.1769 6.87333 38.8235 7.52 39.2769 8.36C39.7435 9.18667 39.9769 10.14 39.9769 11.22ZM37.0769 10.42C37.0635 9.7 36.8035 9.12667 36.2969 8.7C35.7902 8.26 35.1702 8.04 34.4369 8.04C33.7435 8.04 33.1569 8.25333 32.6769 8.68C32.2102 9.09333 31.9235 9.67333 31.8169 10.42H37.0769ZM51.0263 17.18C50.1196 17.18 49.3063 17.02 48.5863 16.7C47.8663 16.3667 47.2929 15.92 46.8663 15.36C46.4529 14.8 46.2263 14.18 46.1863 13.5H49.0063C49.0596 13.9267 49.2663 14.28 49.6263 14.56C49.9996 14.84 50.4596 14.98 51.0063 14.98C51.5396 14.98 51.9529 14.8733 52.2463 14.66C52.5529 14.4467 52.7063 14.1733 52.7063 13.84C52.7063 13.48 52.5196 13.2133 52.1463 13.04C51.7863 12.8533 51.2063 12.6533 50.4062 12.44C49.5796 12.24 48.8996 12.0333 48.3663 11.82C47.8463 11.6067 47.3929 11.28 47.0063 10.84C46.6329 10.4 46.4463 9.80667 46.4463 9.06C46.4463 8.44667 46.6196 7.88667 46.9663 7.38C47.3263 6.87333 47.8329 6.47333 48.4863 6.18C49.1529 5.88667 49.9329 5.74 50.8263 5.74C52.1463 5.74 53.1996 6.07333 53.9863 6.74C54.7729 7.39333 55.2063 8.28 55.2863 9.4H52.6063C52.5663 8.96 52.3796 8.61333 52.0463 8.36C51.7263 8.09333 51.2929 7.96 50.7463 7.96C50.2396 7.96 49.8463 8.05333 49.5663 8.24C49.2996 8.42667 49.1663 8.68667 49.1663 9.02C49.1663 9.39333 49.3529 9.68 49.7263 9.88C50.0996 10.0667 50.6796 10.26 51.4663 10.46C52.2663 10.66 52.9263 10.8667 53.4463 11.08C53.9663 11.2933 54.4129 11.6267 54.7863 12.08C55.1729 12.52 55.3729 13.1067 55.3863 13.84C55.3863 14.48 55.2063 15.0533 54.8463 15.56C54.4996 16.0667 53.9929 16.4667 53.3263 16.76C52.6729 17.04 51.9063 17.18 51.0263 17.18ZM59.1047 4.6C58.6114 4.6 58.198 4.44667 57.8647 4.14C57.5447 3.82 57.3847 3.42667 57.3847 2.96C57.3847 2.49333 57.5447 2.10667 57.8647 1.8C58.198 1.48 58.6114 1.32 59.1047 1.32C59.598 1.32 60.0047 1.48 60.3247 1.8C60.658 2.10667 60.8247 2.49333 60.8247 2.96C60.8247 3.42667 60.658 3.82 60.3247 4.14C60.0047 4.44667 59.598 4.6 59.1047 4.6ZM60.4847 5.92V17H57.6847V5.92H60.4847ZM66.5111 8.22V13.58C66.5111 13.9533 66.5978 14.2267 66.7711 14.4C66.9578 14.56 67.2644 14.64 67.6911 14.64H68.9911V17H67.2311C64.8711 17 63.6911 15.8533 63.6911 13.56V8.22H62.3711V5.92H63.6911V3.18H66.5111V5.92H68.9911V8.22H66.5111ZM81.305 11.22C81.305 11.62 81.2783 11.98 81.225 12.3H73.125C73.1917 13.1 73.4717 13.7267 73.965 14.18C74.4583 14.6333 75.065 14.86 75.785 14.86C76.825 14.86 77.565 14.4133 78.005 13.52H81.025C80.705 14.5867 80.0917 15.4667 79.185 16.16C78.2783 16.84 77.165 17.18 75.845 17.18C74.7783 17.18 73.8183 16.9467 72.965 16.48C72.125 16 71.465 15.3267 70.985 14.46C70.5183 13.5933 70.285 12.5933 70.285 11.46C70.285 10.3133 70.5183 9.30667 70.985 8.44C71.4517 7.57333 72.105 6.90667 72.945 6.44C73.785 5.97333 74.7517 5.74 75.845 5.74C76.8983 5.74 77.8383 5.96667 78.665 6.42C79.505 6.87333 80.1517 7.52 80.605 8.36C81.0717 9.18667 81.305 10.14 81.305 11.22ZM78.405 10.42C78.3917 9.7 78.1317 9.12667 77.625 8.7C77.1183 8.26 76.4983 8.04 75.765 8.04C75.0717 8.04 74.485 8.25333 74.005 8.68C73.5383 9.09333 73.2517 9.67333 73.145 10.42H78.405ZM94.2544 5.76C95.5744 5.76 96.641 6.18 97.4544 7.02C98.2677 7.84667 98.6744 9.00667 98.6744 10.5V17H95.8744V10.88C95.8744 10 95.6544 9.32667 95.2144 8.86C94.7744 8.38 94.1744 8.14 93.4144 8.14C92.641 8.14 92.0277 8.38 91.5744 8.86C91.1344 9.32667 90.9144 10 90.9144 10.88V17H88.1144V5.92H90.9144V7.3C91.2877 6.82 91.761 6.44667 92.3344 6.18C92.921 5.9 93.561 5.76 94.2544 5.76ZM100.617 11.42C100.617 10.3 100.837 9.30667 101.277 8.44C101.73 7.57333 102.337 6.90667 103.097 6.44C103.87 5.97333 104.73 5.74 105.677 5.74C106.504 5.74 107.224 5.90667 107.837 6.24C108.464 6.57333 108.964 6.99333 109.337 7.5V5.92H112.157V17H109.337V15.38C108.977 15.9 108.477 16.3333 107.837 16.68C107.21 17.0133 106.484 17.18 105.657 17.18C104.724 17.18 103.87 16.94 103.097 16.46C102.337 15.98 101.73 15.3067 101.277 14.44C100.837 13.56 100.617 12.5533 100.617 11.42ZM109.337 11.46C109.337 10.78 109.204 10.2 108.937 9.72C108.67 9.22667 108.31 8.85333 107.857 8.6C107.404 8.33333 106.917 8.2 106.397 8.2C105.877 8.2 105.397 8.32667 104.957 8.58C104.517 8.83333 104.157 9.20667 103.877 9.7C103.61 10.18 103.477 10.7533 103.477 11.42C103.477 12.0867 103.61 12.6733 103.877 13.18C104.157 13.6733 104.517 14.0533 104.957 14.32C105.41 14.5867 105.89 14.72 106.397 14.72C106.917 14.72 107.404 14.5933 107.857 14.34C108.31 14.0733 108.67 13.7 108.937 13.22C109.204 12.7267 109.337 12.14 109.337 11.46ZM103.177 4.86C103.297 3.98 103.57 3.32667 103.997 2.9C104.437 2.46 104.99 2.24 105.657 2.24C105.937 2.24 106.184 2.28667 106.397 2.38C106.61 2.46 106.85 2.58 107.117 2.74C107.517 2.99333 107.85 3.12 108.117 3.12C108.61 3.12 108.897 2.83333 108.977 2.26H110.477C110.357 3.14 110.077 3.8 109.637 4.24C109.21 4.66667 108.664 4.88 107.997 4.88C107.717 4.88 107.47 4.84 107.257 4.76C107.044 4.66667 106.804 4.54 106.537 4.38C106.15 4.11333 105.817 3.98 105.537 3.98C105.044 3.98 104.75 4.27333 104.657 4.86H103.177ZM119.812 17.18C118.745 17.18 117.785 16.9467 116.932 16.48C116.078 16 115.405 15.3267 114.912 14.46C114.432 13.5933 114.192 12.5933 114.192 11.46C114.192 10.3267 114.438 9.32667 114.932 8.46C115.438 7.59333 116.125 6.92667 116.992 6.46C117.858 5.98 118.825 5.74 119.892 5.74C120.958 5.74 121.925 5.98 122.792 6.46C123.658 6.92667 124.338 7.59333 124.832 8.46C125.338 9.32667 125.592 10.3267 125.592 11.46C125.592 12.5933 125.332 13.5933 124.812 14.46C124.305 15.3267 123.612 16 122.732 16.48C121.865 16.9467 120.892 17.18 119.812 17.18ZM119.812 14.74C120.318 14.74 120.792 14.62 121.232 14.38C121.685 14.1267 122.045 13.7533 122.312 13.26C122.578 12.7667 122.712 12.1667 122.712 11.46C122.712 10.4067 122.432 9.6 121.872 9.04C121.325 8.46667 120.652 8.18 119.852 8.18C119.052 8.18 118.378 8.46667 117.832 9.04C117.298 9.6 117.032 10.4067 117.032 11.46C117.032 12.5133 117.292 13.3267 117.812 13.9C118.345 14.46 119.012 14.74 119.812 14.74ZM142.711 11.22C142.711 11.62 142.685 11.98 142.631 12.3H134.531C134.598 13.1 134.878 13.7267 135.371 14.18C135.865 14.6333 136.471 14.86 137.191 14.86C138.231 14.86 138.971 14.4133 139.411 13.52H142.431C142.111 14.5867 141.498 15.4667 140.591 16.16C139.685 16.84 138.571 17.18 137.251 17.18C136.185 17.18 135.225 16.9467 134.371 16.48C133.531 16 132.871 15.3267 132.391 14.46C131.925 13.5933 131.691 12.5933 131.691 11.46C131.691 10.3133 131.925 9.30667 132.391 8.44C132.858 7.57333 133.511 6.90667 134.351 6.44C135.191 5.97333 136.158 5.74 137.251 5.74C138.305 5.74 139.245 5.96667 140.071 6.42C140.911 6.87333 141.558 7.52 142.011 8.36C142.478 9.18667 142.711 10.14 142.711 11.22ZM139.811 10.42C139.798 9.7 139.538 9.12667 139.031 8.7C138.525 8.26 137.905 8.04 137.171 8.04C136.478 8.04 135.891 8.25333 135.411 8.68C134.945 9.09333 134.658 9.67333 134.551 10.42H139.811ZM139.391 3L134.791 5.1V3.1L139.391 0.72V3ZM148.801 11.42C148.801 10.3 149.021 9.30667 149.461 8.44C149.914 7.57333 150.527 6.90667 151.301 6.44C152.074 5.97333 152.934 5.74 153.881 5.74C154.601 5.74 155.287 5.9 155.941 6.22C156.594 6.52667 157.114 6.94 157.501 7.46V2.2H160.341V17H157.501V15.36C157.154 15.9067 156.667 16.3467 156.041 16.68C155.414 17.0133 154.687 17.18 153.861 17.18C152.927 17.18 152.074 16.94 151.301 16.46C150.527 15.98 149.914 15.3067 149.461 14.44C149.021 13.56 148.801 12.5533 148.801 11.42ZM157.521 11.46C157.521 10.78 157.387 10.2 157.121 9.72C156.854 9.22667 156.494 8.85333 156.041 8.6C155.587 8.33333 155.101 8.2 154.581 8.2C154.061 8.2 153.581 8.32667 153.141 8.58C152.701 8.83333 152.341 9.20667 152.061 9.7C151.794 10.18 151.661 10.7533 151.661 11.42C151.661 12.0867 151.794 12.6733 152.061 13.18C152.341 13.6733 152.701 14.0533 153.141 14.32C153.594 14.5867 154.074 14.72 154.581 14.72C155.101 14.72 155.587 14.5933 156.041 14.34C156.494 14.0733 156.854 13.7 157.121 13.22C157.387 12.7267 157.521 12.14 157.521 11.46ZM173.375 11.22C173.375 11.62 173.349 11.98 173.295 12.3H165.195C165.262 13.1 165.542 13.7267 166.035 14.18C166.529 14.6333 167.135 14.86 167.855 14.86C168.895 14.86 169.635 14.4133 170.075 13.52H173.095C172.775 14.5867 172.162 15.4667 171.255 16.16C170.349 16.84 169.235 17.18 167.915 17.18C166.849 17.18 165.889 16.9467 165.035 16.48C164.195 16 163.535 15.3267 163.055 14.46C162.589 13.5933 162.355 12.5933 162.355 11.46C162.355 10.3133 162.589 9.30667 163.055 8.44C163.522 7.57333 164.175 6.90667 165.015 6.44C165.855 5.97333 166.822 5.74 167.915 5.74C168.969 5.74 169.909 5.96667 170.735 6.42C171.575 6.87333 172.222 7.52 172.675 8.36C173.142 9.18667 173.375 10.14 173.375 11.22ZM170.475 10.42C170.462 9.7 170.202 9.12667 169.695 8.7C169.189 8.26 168.569 8.04 167.835 8.04C167.142 8.04 166.555 8.25333 166.075 8.68C165.609 9.09333 165.322 9.67333 165.215 10.42H170.475ZM182.985 7.52C183.345 7.01333 183.838 6.59333 184.465 6.26C185.105 5.91333 185.831 5.74 186.645 5.74C187.591 5.74 188.445 5.97333 189.205 6.44C189.978 6.90667 190.585 7.57333 191.025 8.44C191.478 9.29333 191.705 10.2867 191.705 11.42C191.705 12.5533 191.478 13.56 191.025 14.44C190.585 15.3067 189.978 15.98 189.205 16.46C188.445 16.94 187.591 17.18 186.645 17.18C185.831 17.18 185.111 17.0133 184.485 16.68C183.871 16.3467 183.371 15.9267 182.985 15.42V22.28H180.185V5.92H182.985V7.52ZM188.845 11.42C188.845 10.7533 188.705 10.18 188.425 9.7C188.158 9.20667 187.798 8.83333 187.345 8.58C186.905 8.32667 186.425 8.2 185.905 8.2C185.398 8.2 184.918 8.33333 184.465 8.6C184.025 8.85333 183.665 9.22667 183.385 9.72C183.118 10.2133 182.985 10.7933 182.985 11.46C182.985 12.1267 183.118 12.7067 183.385 13.2C183.665 13.6933 184.025 14.0733 184.465 14.34C184.918 14.5933 185.398 14.72 185.905 14.72C186.425 14.72 186.905 14.5867 187.345 14.32C187.798 14.0533 188.158 13.6733 188.425 13.18C188.705 12.6867 188.845 12.1 188.845 11.42ZM196.539 7.64C196.899 7.05333 197.366 6.59333 197.939 6.26C198.526 5.92667 199.193 5.76 199.939 5.76V8.7H199.199C198.319 8.7 197.653 8.90667 197.199 9.32C196.759 9.73333 196.539 10.4533 196.539 11.48V17H193.739V5.92H196.539V7.64ZM206.745 17.18C205.679 17.18 204.719 16.9467 203.865 16.48C203.012 16 202.339 15.3267 201.845 14.46C201.365 13.5933 201.125 12.5933 201.125 11.46C201.125 10.3267 201.372 9.32667 201.865 8.46C202.372 7.59333 203.059 6.92667 203.925 6.46C204.792 5.98 205.759 5.74 206.825 5.74C207.892 5.74 208.859 5.98 209.725 6.46C210.592 6.92667 211.272 7.59333 211.765 8.46C212.272 9.32667 212.525 10.3267 212.525 11.46C212.525 12.5933 212.265 13.5933 211.745 14.46C211.239 15.3267 210.545 16 209.665 16.48C208.799 16.9467 207.825 17.18 206.745 17.18ZM206.745 14.74C207.252 14.74 207.725 14.62 208.165 14.38C208.619 14.1267 208.979 13.7533 209.245 13.26C209.512 12.7667 209.645 12.1667 209.645 11.46C209.645 10.4067 209.365 9.6 208.805 9.04C208.259 8.46667 207.585 8.18 206.785 8.18C205.985 8.18 205.312 8.46667 204.765 9.04C204.232 9.6 203.965 10.4067 203.965 11.46C203.965 12.5133 204.225 13.3267 204.745 13.9C205.279 14.46 205.945 14.74 206.745 14.74ZM217.379 7.52C217.739 7.01333 218.233 6.59333 218.859 6.26C219.499 5.91333 220.226 5.74 221.039 5.74C221.986 5.74 222.839 5.97333 223.599 6.44C224.373 6.90667 224.979 7.57333 225.419 8.44C225.873 9.29333 226.099 10.2867 226.099 11.42C226.099 12.5533 225.873 13.56 225.419 14.44C224.979 15.3067 224.373 15.98 223.599 16.46C222.839 16.94 221.986 17.18 221.039 17.18C220.226 17.18 219.506 17.0133 218.879 16.68C218.266 16.3467 217.766 15.9267 217.379 15.42V22.28H214.579V5.92H217.379V7.52ZM223.239 11.42C223.239 10.7533 223.099 10.18 222.819 9.7C222.553 9.20667 222.193 8.83333 221.739 8.58C221.299 8.32667 220.819 8.2 220.299 8.2C219.793 8.2 219.313 8.33333 218.859 8.6C218.419 8.85333 218.059 9.22667 217.779 9.72C217.513 10.2133 217.379 10.7933 217.379 11.46C217.379 12.1267 217.513 12.7067 217.779 13.2C218.059 13.6933 218.419 14.0733 218.859 14.34C219.313 14.5933 219.793 14.72 220.299 14.72C220.819 14.72 221.299 14.5867 221.739 14.32C222.193 14.0533 222.553 13.6733 222.819 13.18C223.099 12.6867 223.239 12.1 223.239 11.42ZM230.934 7.64C231.294 7.05333 231.761 6.59333 232.334 6.26C232.921 5.92667 233.587 5.76 234.334 5.76V8.7H233.594C232.714 8.7 232.047 8.90667 231.594 9.32C231.154 9.73333 230.934 10.4533 230.934 11.48V17H228.134V5.92H230.934V7.64ZM237.64 4.6C237.147 4.6 236.733 4.44667 236.4 4.14C236.08 3.82 235.92 3.42667 235.92 2.96C235.92 2.49333 236.08 2.10667 236.4 1.8C236.733 1.48 237.147 1.32 237.64 1.32C238.133 1.32 238.54 1.48 238.86 1.8C239.193 2.10667 239.36 2.49333 239.36 2.96C239.36 3.42667 239.193 3.82 238.86 4.14C238.54 4.44667 238.133 4.6 237.64 4.6ZM239.02 5.92V17H236.22V5.92H239.02ZM252.086 11.22C252.086 11.62 252.06 11.98 252.006 12.3H243.906C243.973 13.1 244.253 13.7267 244.746 14.18C245.24 14.6333 245.846 14.86 246.566 14.86C247.606 14.86 248.346 14.4133 248.786 13.52H251.806C251.486 14.5867 250.873 15.4667 249.966 16.16C249.06 16.84 247.946 17.18 246.626 17.18C245.56 17.18 244.6 16.9467 243.746 16.48C242.906 16 242.246 15.3267 241.766 14.46C241.3 13.5933 241.066 12.5933 241.066 11.46C241.066 10.3133 241.3 9.30667 241.766 8.44C242.233 7.57333 242.886 6.90667 243.726 6.44C244.566 5.97333 245.533 5.74 246.626 5.74C247.68 5.74 248.62 5.96667 249.446 6.42C250.286 6.87333 250.933 7.52 251.386 8.36C251.853 9.18667 252.086 10.14 252.086 11.22ZM249.186 10.42C249.173 9.7 248.913 9.12667 248.406 8.7C247.9 8.26 247.28 8.04 246.546 8.04C245.853 8.04 245.266 8.25333 244.786 8.68C244.32 9.09333 244.033 9.67333 243.926 10.42H249.186ZM253.41 11.42C253.41 10.3 253.63 9.30667 254.07 8.44C254.523 7.57333 255.137 6.90667 255.91 6.44C256.683 5.97333 257.543 5.74 258.49 5.74C259.21 5.74 259.897 5.9 260.55 6.22C261.203 6.52667 261.723 6.94 262.11 7.46V2.2H264.95V17H262.11V15.36C261.763 15.9067 261.277 16.3467 260.65 16.68C260.023 17.0133 259.297 17.18 258.47 17.18C257.537 17.18 256.683 16.94 255.91 16.46C255.137 15.98 254.523 15.3067 254.07 14.44C253.63 13.56 253.41 12.5533 253.41 11.42ZM262.13 11.46C262.13 10.78 261.997 10.2 261.73 9.72C261.463 9.22667 261.103 8.85333 260.65 8.6C260.197 8.33333 259.71 8.2 259.19 8.2C258.67 8.2 258.19 8.32667 257.75 8.58C257.31 8.83333 256.95 9.20667 256.67 9.7C256.403 10.18 256.27 10.7533 256.27 11.42C256.27 12.0867 256.403 12.6733 256.67 13.18C256.95 13.6733 257.31 14.0533 257.75 14.32C258.203 14.5867 258.683 14.72 259.19 14.72C259.71 14.72 260.197 14.5933 260.65 14.34C261.103 14.0733 261.463 13.7 261.73 13.22C261.997 12.7267 262.13 12.14 262.13 11.46ZM266.965 11.42C266.965 10.3 267.185 9.30667 267.625 8.44C268.078 7.57333 268.685 6.90667 269.445 6.44C270.218 5.97333 271.078 5.74 272.025 5.74C272.851 5.74 273.571 5.90667 274.185 6.24C274.811 6.57333 275.311 6.99333 275.685 7.5V5.92H278.505V17H275.685V15.38C275.325 15.9 274.825 16.3333 274.185 16.68C273.558 17.0133 272.831 17.18 272.005 17.18C271.071 17.18 270.218 16.94 269.445 16.46C268.685 15.98 268.078 15.3067 267.625 14.44C267.185 13.56 266.965 12.5533 266.965 11.42ZM275.685 11.46C275.685 10.78 275.551 10.2 275.285 9.72C275.018 9.22667 274.658 8.85333 274.205 8.6C273.751 8.33333 273.265 8.2 272.745 8.2C272.225 8.2 271.745 8.32667 271.305 8.58C270.865 8.83333 270.505 9.20667 270.225 9.7C269.958 10.18 269.825 10.7533 269.825 11.42C269.825 12.0867 269.958 12.6733 270.225 13.18C270.505 13.6733 270.865 14.0533 271.305 14.32C271.758 14.5867 272.238 14.72 272.745 14.72C273.265 14.72 273.751 14.5933 274.205 14.34C274.658 14.0733 275.018 13.7 275.285 13.22C275.551 12.7267 275.685 12.14 275.685 11.46ZM280.519 11.42C280.519 10.3 280.739 9.30667 281.179 8.44C281.633 7.57333 282.246 6.90667 283.019 6.44C283.793 5.97333 284.653 5.74 285.599 5.74C286.319 5.74 287.006 5.9 287.659 6.22C288.313 6.52667 288.833 6.94 289.219 7.46V2.2H292.059V17H289.219V15.36C288.873 15.9067 288.386 16.3467 287.759 16.68C287.133 17.0133 286.406 17.18 285.579 17.18C284.646 17.18 283.793 16.94 283.019 16.46C282.246 15.98 281.633 15.3067 281.179 14.44C280.739 13.56 280.519 12.5533 280.519 11.42ZM289.239 11.46C289.239 10.78 289.106 10.2 288.839 9.72C288.573 9.22667 288.213 8.85333 287.759 8.6C287.306 8.33333 286.819 8.2 286.299 8.2C285.779 8.2 285.299 8.32667 284.859 8.58C284.419 8.83333 284.059 9.20667 283.779 9.7C283.513 10.18 283.379 10.7533 283.379 11.42C283.379 12.0867 283.513 12.6733 283.779 13.18C284.059 13.6733 284.419 14.0533 284.859 14.32C285.313 14.5867 285.793 14.72 286.299 14.72C286.819 14.72 287.306 14.5933 287.759 14.34C288.213 14.0733 288.573 13.7 288.839 13.22C289.106 12.7267 289.239 12.14 289.239 11.46ZM305.094 11.22C305.094 11.62 305.067 11.98 305.014 12.3H296.914C296.981 13.1 297.261 13.7267 297.754 14.18C298.247 14.6333 298.854 14.86 299.574 14.86C300.614 14.86 301.354 14.4133 301.794 13.52H304.814C304.494 14.5867 303.881 15.4667 302.974 16.16C302.067 16.84 300.954 17.18 299.634 17.18C298.567 17.18 297.607 16.9467 296.754 16.48C295.914 16 295.254 15.3267 294.774 14.46C294.307 13.5933 294.074 12.5933 294.074 11.46C294.074 10.3133 294.307 9.30667 294.774 8.44C295.241 7.57333 295.894 6.90667 296.734 6.44C297.574 5.97333 298.541 5.74 299.634 5.74C300.687 5.74 301.627 5.96667 302.454 6.42C303.294 6.87333 303.941 7.52 304.394 8.36C304.861 9.18667 305.094 10.14 305.094 11.22ZM302.194 10.42C302.181 9.7 301.921 9.12667 301.414 8.7C300.907 8.26 300.287 8.04 299.554 8.04C298.861 8.04 298.274 8.25333 297.794 8.68C297.327 9.09333 297.041 9.67333 296.934 10.42H302.194ZM311.183 11.42C311.183 10.3 311.403 9.30667 311.843 8.44C312.297 7.57333 312.91 6.90667 313.683 6.44C314.457 5.97333 315.317 5.74 316.263 5.74C316.983 5.74 317.67 5.9 318.323 6.22C318.977 6.52667 319.497 6.94 319.883 7.46V2.2H322.723V17H319.883V15.36C319.537 15.9067 319.05 16.3467 318.423 16.68C317.797 17.0133 317.07 17.18 316.243 17.18C315.31 17.18 314.457 16.94 313.683 16.46C312.91 15.98 312.297 15.3067 311.843 14.44C311.403 13.56 311.183 12.5533 311.183 11.42ZM319.903 11.46C319.903 10.78 319.77 10.2 319.503 9.72C319.237 9.22667 318.877 8.85333 318.423 8.6C317.97 8.33333 317.483 8.2 316.963 8.2C316.443 8.2 315.963 8.32667 315.523 8.58C315.083 8.83333 314.723 9.20667 314.443 9.7C314.177 10.18 314.043 10.7533 314.043 11.42C314.043 12.0867 314.177 12.6733 314.443 13.18C314.723 13.6733 315.083 14.0533 315.523 14.32C315.977 14.5867 316.457 14.72 316.963 14.72C317.483 14.72 317.97 14.5933 318.423 14.34C318.877 14.0733 319.237 13.7 319.503 13.22C319.77 12.7267 319.903 12.14 319.903 11.46ZM330.378 17.18C329.311 17.18 328.351 16.9467 327.498 16.48C326.645 16 325.971 15.3267 325.478 14.46C324.998 13.5933 324.758 12.5933 324.758 11.46C324.758 10.3267 325.005 9.32667 325.498 8.46C326.005 7.59333 326.691 6.92667 327.558 6.46C328.425 5.98 329.391 5.74 330.458 5.74C331.525 5.74 332.491 5.98 333.358 6.46C334.225 6.92667 334.905 7.59333 335.398 8.46C335.905 9.32667 336.158 10.3267 336.158 11.46C336.158 12.5933 335.898 13.5933 335.378 14.46C334.871 15.3267 334.178 16 333.298 16.48C332.431 16.9467 331.458 17.18 330.378 17.18ZM330.378 14.74C330.885 14.74 331.358 14.62 331.798 14.38C332.251 14.1267 332.611 13.7533 332.878 13.26C333.145 12.7667 333.278 12.1667 333.278 11.46C333.278 10.4067 332.998 9.6 332.438 9.04C331.891 8.46667 331.218 8.18 330.418 8.18C329.618 8.18 328.945 8.46667 328.398 9.04C327.865 9.6 327.598 10.4067 327.598 11.46C327.598 12.5133 327.858 13.3267 328.378 13.9C328.911 14.46 329.578 14.74 330.378 14.74ZM345.778 14.78H350.378V17H342.978V3.04H345.778V14.78ZM362.457 11.22C362.457 11.62 362.431 11.98 362.377 12.3H354.277C354.344 13.1 354.624 13.7267 355.117 14.18C355.611 14.6333 356.217 14.86 356.937 14.86C357.977 14.86 358.717 14.4133 359.157 13.52H362.177C361.857 14.5867 361.244 15.4667 360.337 16.16C359.431 16.84 358.317 17.18 356.997 17.18C355.931 17.18 354.971 16.9467 354.117 16.48C353.277 16 352.617 15.3267 352.137 14.46C351.671 13.5933 351.437 12.5933 351.437 11.46C351.437 10.3133 351.671 9.30667 352.137 8.44C352.604 7.57333 353.257 6.90667 354.097 6.44C354.937 5.97333 355.904 5.74 356.997 5.74C358.051 5.74 358.991 5.96667 359.817 6.42C360.657 6.87333 361.304 7.52 361.757 8.36C362.224 9.18667 362.457 10.14 362.457 11.22ZM359.557 10.42C359.544 9.7 359.284 9.12667 358.777 8.7C358.271 8.26 357.651 8.04 356.917 8.04C356.224 8.04 355.637 8.25333 355.157 8.68C354.691 9.09333 354.404 9.67333 354.297 10.42H359.557ZM367.301 2.2V17H364.501V2.2H367.301ZM372.868 2.2V17H370.068V2.2H372.868ZM374.914 11.42C374.914 10.3 375.134 9.30667 375.574 8.44C376.027 7.57333 376.634 6.90667 377.394 6.44C378.167 5.97333 379.027 5.74 379.974 5.74C380.801 5.74 381.521 5.90667 382.134 6.24C382.761 6.57333 383.261 6.99333 383.634 7.5V5.92H386.454V17H383.634V15.38C383.274 15.9 382.774 16.3333 382.134 16.68C381.507 17.0133 380.781 17.18 379.954 17.18C379.021 17.18 378.167 16.94 377.394 16.46C376.634 15.98 376.027 15.3067 375.574 14.44C375.134 13.56 374.914 12.5533 374.914 11.42ZM383.634 11.46C383.634 10.78 383.501 10.2 383.234 9.72C382.967 9.22667 382.607 8.85333 382.154 8.6C381.701 8.33333 381.214 8.2 380.694 8.2C380.174 8.2 379.694 8.32667 379.254 8.58C378.814 8.83333 378.454 9.20667 378.174 9.7C377.907 10.18 377.774 10.7533 377.774 11.42C377.774 12.0867 377.907 12.6733 378.174 13.18C378.454 13.6733 378.814 14.0533 379.254 14.32C379.707 14.5867 380.187 14.72 380.694 14.72C381.214 14.72 381.701 14.5933 382.154 14.34C382.607 14.0733 382.967 13.7 383.234 13.22C383.501 12.7267 383.634 12.14 383.634 11.46ZM405.534 3.04V17H402.734V11.06H396.754V17H393.954V3.04H396.754V8.78H402.734V3.04H405.534ZM413.21 17.18C412.143 17.18 411.183 16.9467 410.33 16.48C409.477 16 408.803 15.3267 408.31 14.46C407.83 13.5933 407.59 12.5933 407.59 11.46C407.59 10.3267 407.837 9.32667 408.33 8.46C408.837 7.59333 409.523 6.92667 410.39 6.46C411.257 5.98 412.223 5.74 413.29 5.74C414.357 5.74 415.323 5.98 416.19 6.46C417.057 6.92667 417.737 7.59333 418.23 8.46C418.737 9.32667 418.99 10.3267 418.99 11.46C418.99 12.5933 418.73 13.5933 418.21 14.46C417.703 15.3267 417.01 16 416.13 16.48C415.263 16.9467 414.29 17.18 413.21 17.18ZM413.21 14.74C413.717 14.74 414.19 14.62 414.63 14.38C415.083 14.1267 415.443 13.7533 415.71 13.26C415.977 12.7667 416.11 12.1667 416.11 11.46C416.11 10.4067 415.83 9.6 415.27 9.04C414.723 8.46667 414.05 8.18 413.25 8.18C412.45 8.18 411.777 8.46667 411.23 9.04C410.697 9.6 410.43 10.4067 410.43 11.46C410.43 12.5133 410.69 13.3267 411.21 13.9C411.743 14.46 412.41 14.74 413.21 14.74ZM424.304 8.22V13.58C424.304 13.9533 424.391 14.2267 424.564 14.4C424.751 14.56 425.057 14.64 425.484 14.64H426.784V17H425.024C422.664 17 421.484 15.8533 421.484 13.56V8.22H420.164V5.92H421.484V3.18H424.304V5.92H426.784V8.22H424.304ZM439.098 11.22C439.098 11.62 439.071 11.98 439.018 12.3H430.918C430.985 13.1 431.265 13.7267 431.758 14.18C432.251 14.6333 432.858 14.86 433.578 14.86C434.618 14.86 435.358 14.4133 435.798 13.52H438.818C438.498 14.5867 437.885 15.4667 436.978 16.16C436.071 16.84 434.958 17.18 433.638 17.18C432.571 17.18 431.611 16.9467 430.758 16.48C429.918 16 429.258 15.3267 428.778 14.46C428.311 13.5933 428.078 12.5933 428.078 11.46C428.078 10.3133 428.311 9.30667 428.778 8.44C429.245 7.57333 429.898 6.90667 430.738 6.44C431.578 5.97333 432.545 5.74 433.638 5.74C434.691 5.74 435.631 5.96667 436.458 6.42C437.298 6.87333 437.945 7.52 438.398 8.36C438.865 9.18667 439.098 10.14 439.098 11.22ZM436.198 10.42C436.185 9.7 435.925 9.12667 435.418 8.7C434.911 8.26 434.291 8.04 433.558 8.04C432.865 8.04 432.278 8.25333 431.798 8.68C431.331 9.09333 431.045 9.67333 430.938 10.42H436.198ZM443.942 2.2V17H441.142V2.2H443.942ZM450.488 2.82C451.301 2.82 452.028 3 452.668 3.36C453.321 3.72 453.828 4.22667 454.188 4.88C454.548 5.52 454.728 6.25333 454.728 7.08C454.728 7.89333 454.548 8.62 454.188 9.26C453.828 9.9 453.321 10.4067 452.668 10.78C452.028 11.14 451.301 11.32 450.488 11.32C449.675 11.32 448.941 11.14 448.288 10.78C447.648 10.4067 447.141 9.9 446.768 9.26C446.408 8.62 446.228 7.89333 446.228 7.08C446.228 6.25333 446.408 5.52 446.768 4.88C447.141 4.22667 447.648 3.72 448.288 3.36C448.941 3 449.675 2.82 450.488 2.82ZM450.488 10.3C451.448 10.3 452.215 10.0067 452.788 9.42C453.375 8.82 453.668 8.04 453.668 7.08C453.668 6.10667 453.375 5.32667 452.788 4.74C452.215 4.14 451.448 3.84 450.488 3.84C449.528 3.84 448.761 4.14 448.188 4.74C447.615 5.32667 447.328 6.10667 447.328 7.08C447.328 8.05333 447.615 8.83333 448.188 9.42C448.761 10.0067 449.528 10.3 450.488 10.3ZM452.368 6.28C452.368 6.57333 452.295 6.82667 452.148 7.04C452.015 7.25333 451.821 7.41333 451.568 7.52L452.608 9.16H451.048L450.188 7.66H450.068V9.16H448.728V4.88H450.828C451.295 4.88 451.668 5.01333 451.948 5.28C452.228 5.53333 452.368 5.86667 452.368 6.28ZM450.048 6.66H450.688C450.781 6.66 450.861 6.63333 450.928 6.58C450.995 6.52667 451.028 6.44667 451.028 6.34C451.028 6.14 450.915 6.04 450.688 6.04H450.048V6.66Z" fill="#DD51CB"/>
</svg>
