<svg width="304" height="30" viewBox="0 0 304 30" fill="none" xmlns="http://www.w3.org/2000/svg">
<path d="M6.26 8.04C7.72667 8.04 9.01333 8.32667 10.12 8.9C11.24 9.47333 12.1 10.2933 12.7 11.36C13.3133 12.4133 13.62 13.64 13.62 15.04C13.62 16.44 13.3133 17.6667 12.7 18.72C12.1 19.76 11.24 20.5667 10.12 21.14C9.01333 21.7133 7.72667 22 6.26 22H1.38V8.04H6.26ZM6.16 19.62C7.62667 19.62 8.76 19.22 9.56 18.42C10.36 17.62 10.76 16.4933 10.76 15.04C10.76 13.5867 10.36 12.4533 9.56 11.64C8.76 10.8133 7.62667 10.4 6.16 10.4H4.18V19.62H6.16ZM26.0159 16.22C26.0159 16.62 25.9893 16.98 25.9359 17.3H17.8359C17.9026 18.1 18.1826 18.7267 18.6759 19.18C19.1693 19.6333 19.7759 19.86 20.4959 19.86C21.5359 19.86 22.2759 19.4133 22.7159 18.52H25.7359C25.4159 19.5867 24.8026 20.4667 23.8959 21.16C22.9893 21.84 21.8759 22.18 20.5559 22.18C19.4893 22.18 18.5293 21.9467 17.6759 21.48C16.8359 21 16.1759 20.3267 15.6959 19.46C15.2293 18.5933 14.9959 17.5933 14.9959 16.46C14.9959 15.3133 15.2293 14.3067 15.6959 13.44C16.1626 12.5733 16.8159 11.9067 17.6559 11.44C18.4959 10.9733 19.4626 10.74 20.5559 10.74C21.6093 10.74 22.5493 10.9667 23.3759 11.42C24.2159 11.8733 24.8626 12.52 25.3159 13.36C25.7826 14.1867 26.0159 15.14 26.0159 16.22ZM23.1159 15.42C23.1026 14.7 22.8426 14.1267 22.3359 13.7C21.8293 13.26 21.2093 13.04 20.4759 13.04C19.7826 13.04 19.1959 13.2533 18.7159 13.68C18.2493 14.0933 17.9626 14.6733 17.8559 15.42H23.1159ZM32.2997 22.18C31.393 22.18 30.5797 22.02 29.8597 21.7C29.1397 21.3667 28.5664 20.92 28.1397 20.36C27.7264 19.8 27.4997 19.18 27.4597 18.5H30.2797C30.333 18.9267 30.5397 19.28 30.8997 19.56C31.273 19.84 31.733 19.98 32.2797 19.98C32.813 19.98 33.2264 19.8733 33.5197 19.66C33.8264 19.4467 33.9797 19.1733 33.9797 18.84C33.9797 18.48 33.793 18.2133 33.4197 18.04C33.0597 17.8533 32.4797 17.6533 31.6797 17.44C30.853 17.24 30.173 17.0333 29.6397 16.82C29.1197 16.6067 28.6664 16.28 28.2797 15.84C27.9064 15.4 27.7197 14.8067 27.7197 14.06C27.7197 13.4467 27.893 12.8867 28.2397 12.38C28.5997 11.8733 29.1064 11.4733 29.7597 11.18C30.4264 10.8867 31.2064 10.74 32.0997 10.74C33.4197 10.74 34.473 11.0733 35.2597 11.74C36.0464 12.3933 36.4797 13.28 36.5597 14.4H33.8797C33.8397 13.96 33.653 13.6133 33.3197 13.36C32.9997 13.0933 32.5664 12.96 32.0197 12.96C31.513 12.96 31.1197 13.0533 30.8397 13.24C30.573 13.4267 30.4397 13.6867 30.4397 14.02C30.4397 14.3933 30.6264 14.68 30.9997 14.88C31.373 15.0667 31.953 15.26 32.7397 15.46C33.5397 15.66 34.1997 15.8667 34.7197 16.08C35.2397 16.2933 35.6864 16.6267 36.0597 17.08C36.4464 17.52 36.6464 18.1067 36.6597 18.84C36.6597 19.48 36.4797 20.0533 36.1197 20.56C35.773 21.0667 35.2664 21.4667 34.5997 21.76C33.9464 22.04 33.1797 22.18 32.2997 22.18ZM49.2581 16.22C49.2581 16.62 49.2315 16.98 49.1781 17.3H41.0781C41.1448 18.1 41.4248 18.7267 41.9181 19.18C42.4115 19.6333 43.0181 19.86 43.7381 19.86C44.7781 19.86 45.5181 19.4133 45.9581 18.52H48.9781C48.6581 19.5867 48.0448 20.4667 47.1381 21.16C46.2315 21.84 45.1181 22.18 43.7981 22.18C42.7315 22.18 41.7715 21.9467 40.9181 21.48C40.0781 21 39.4181 20.3267 38.9381 19.46C38.4715 18.5933 38.2381 17.5933 38.2381 16.46C38.2381 15.3133 38.4715 14.3067 38.9381 13.44C39.4048 12.5733 40.0581 11.9067 40.8981 11.44C41.7381 10.9733 42.7048 10.74 43.7981 10.74C44.8515 10.74 45.7915 10.9667 46.6181 11.42C47.4581 11.8733 48.1048 12.52 48.5581 13.36C49.0248 14.1867 49.2581 15.14 49.2581 16.22ZM46.3581 15.42C46.3448 14.7 46.0848 14.1267 45.5781 13.7C45.0715 13.26 44.4515 13.04 43.7181 13.04C43.0248 13.04 42.4381 13.2533 41.9581 13.68C41.4915 14.0933 41.2048 14.6733 41.0981 15.42H46.3581ZM57.4419 10.76C58.7619 10.76 59.8285 11.18 60.6419 12.02C61.4552 12.8467 61.8619 14.0067 61.8619 15.5V22H59.0619V15.88C59.0619 15 58.8419 14.3267 58.4019 13.86C57.9619 13.38 57.3619 13.14 56.6019 13.14C55.8285 13.14 55.2152 13.38 54.7619 13.86C54.3219 14.3267 54.1019 15 54.1019 15.88V22H51.3019V10.92H54.1019V12.3C54.4752 11.82 54.9485 11.4467 55.5219 11.18C56.1085 10.9 56.7485 10.76 57.4419 10.76ZM70.7645 10.76C71.6045 10.76 72.3512 10.9467 73.0045 11.32C73.6579 11.68 74.1645 12.22 74.5245 12.94C74.8979 13.6467 75.0845 14.5 75.0845 15.5V22H72.2845V15.88C72.2845 15 72.0645 14.3267 71.6245 13.86C71.1845 13.38 70.5845 13.14 69.8245 13.14C69.0512 13.14 68.4379 13.38 67.9845 13.86C67.5445 14.3267 67.3245 15 67.3245 15.88V22H64.5245V7.2H67.3245V12.3C67.6845 11.82 68.1645 11.4467 68.7645 11.18C69.3645 10.9 70.0312 10.76 70.7645 10.76ZM77.0272 16.42C77.0272 15.3 77.2472 14.3067 77.6872 13.44C78.1405 12.5733 78.7472 11.9067 79.5072 11.44C80.2805 10.9733 81.1405 10.74 82.0872 10.74C82.9139 10.74 83.6339 10.9067 84.2472 11.24C84.8739 11.5733 85.3739 11.9933 85.7472 12.5V10.92H88.5672V22H85.7472V20.38C85.3872 20.9 84.8872 21.3333 84.2472 21.68C83.6205 22.0133 82.8939 22.18 82.0672 22.18C81.1339 22.18 80.2805 21.94 79.5072 21.46C78.7472 20.98 78.1405 20.3067 77.6872 19.44C77.2472 18.56 77.0272 17.5533 77.0272 16.42ZM85.7472 16.46C85.7472 15.78 85.6139 15.2 85.3472 14.72C85.0805 14.2267 84.7205 13.8533 84.2672 13.6C83.8139 13.3333 83.3272 13.2 82.8072 13.2C82.2872 13.2 81.8072 13.3267 81.3672 13.58C80.9272 13.8333 80.5672 14.2067 80.2872 14.7C80.0205 15.18 79.8872 15.7533 79.8872 16.42C79.8872 17.0867 80.0205 17.6733 80.2872 18.18C80.5672 18.6733 80.9272 19.0533 81.3672 19.32C81.8205 19.5867 82.3005 19.72 82.8072 19.72C83.3272 19.72 83.8139 19.5933 84.2672 19.34C84.7205 19.0733 85.0805 18.7 85.3472 18.22C85.6139 17.7267 85.7472 17.14 85.7472 16.46ZM90.5819 16.42C90.5819 15.3 90.8019 14.3067 91.2419 13.44C91.6952 12.5733 92.3085 11.9067 93.0819 11.44C93.8552 10.9733 94.7152 10.74 95.6619 10.74C96.3819 10.74 97.0685 10.9 97.7219 11.22C98.3752 11.5267 98.8952 11.94 99.2819 12.46V7.2H102.122V22H99.2819V20.36C98.9352 20.9067 98.4485 21.3467 97.8219 21.68C97.1952 22.0133 96.4685 22.18 95.6419 22.18C94.7085 22.18 93.8552 21.94 93.0819 21.46C92.3085 20.98 91.6952 20.3067 91.2419 19.44C90.8019 18.56 90.5819 17.5533 90.5819 16.42ZM99.3019 16.46C99.3019 15.78 99.1685 15.2 98.9019 14.72C98.6352 14.2267 98.2752 13.8533 97.8219 13.6C97.3685 13.3333 96.8819 13.2 96.3619 13.2C95.8419 13.2 95.3619 13.3267 94.9219 13.58C94.4819 13.8333 94.1219 14.2067 93.8419 14.7C93.5752 15.18 93.4419 15.7533 93.4419 16.42C93.4419 17.0867 93.5752 17.6733 93.8419 18.18C94.1219 18.6733 94.4819 19.0533 94.9219 19.32C95.3752 19.5867 95.8552 19.72 96.3619 19.72C96.8819 19.72 97.3685 19.5933 97.8219 19.34C98.2752 19.0733 98.6352 18.7 98.9019 18.22C99.1685 17.7267 99.3019 17.14 99.3019 16.46ZM109.777 22.18C108.71 22.18 107.75 21.9467 106.897 21.48C106.043 21 105.37 20.3267 104.877 19.46C104.397 18.5933 104.157 17.5933 104.157 16.46C104.157 15.3267 104.403 14.3267 104.897 13.46C105.403 12.5933 106.09 11.9267 106.957 11.46C107.823 10.98 108.79 10.74 109.857 10.74C110.923 10.74 111.89 10.98 112.757 11.46C113.623 11.9267 114.303 12.5933 114.797 13.46C115.303 14.3267 115.557 15.3267 115.557 16.46C115.557 17.5933 115.297 18.5933 114.777 19.46C114.27 20.3267 113.577 21 112.697 21.48C111.83 21.9467 110.857 22.18 109.777 22.18ZM109.777 19.74C110.283 19.74 110.757 19.62 111.197 19.38C111.65 19.1267 112.01 18.7533 112.277 18.26C112.543 17.7667 112.677 17.1667 112.677 16.46C112.677 15.4067 112.397 14.6 111.837 14.04C111.29 13.4667 110.617 13.18 109.817 13.18C109.017 13.18 108.343 13.4667 107.797 14.04C107.263 14.6 106.997 15.4067 106.997 16.46C106.997 17.5133 107.257 18.3267 107.777 18.9C108.31 19.46 108.977 19.74 109.777 19.74ZM121.656 16.46C121.656 15.3133 121.889 14.3133 122.356 13.46C122.823 12.5933 123.469 11.9267 124.296 11.46C125.123 10.98 126.069 10.74 127.136 10.74C128.509 10.74 129.643 11.0867 130.536 11.78C131.443 12.46 132.049 13.42 132.356 14.66H129.336C129.176 14.18 128.903 13.8067 128.516 13.54C128.143 13.26 127.676 13.12 127.116 13.12C126.316 13.12 125.683 13.4133 125.216 14C124.749 14.5733 124.516 15.3933 124.516 16.46C124.516 17.5133 124.749 18.3333 125.216 18.92C125.683 19.4933 126.316 19.78 127.116 19.78C128.249 19.78 128.989 19.2733 129.336 18.26H132.356C132.049 19.46 131.443 20.4133 130.536 21.12C129.629 21.8267 128.496 22.18 127.136 22.18C126.069 22.18 125.123 21.9467 124.296 21.48C123.469 21 122.823 20.3333 122.356 19.48C121.889 18.6133 121.656 17.6067 121.656 16.46ZM139.327 22.18C138.261 22.18 137.301 21.9467 136.447 21.48C135.594 21 134.921 20.3267 134.427 19.46C133.947 18.5933 133.707 17.5933 133.707 16.46C133.707 15.3267 133.954 14.3267 134.447 13.46C134.954 12.5933 135.641 11.9267 136.507 11.46C137.374 10.98 138.341 10.74 139.407 10.74C140.474 10.74 141.441 10.98 142.307 11.46C143.174 11.9267 143.854 12.5933 144.347 13.46C144.854 14.3267 145.107 15.3267 145.107 16.46C145.107 17.5933 144.847 18.5933 144.327 19.46C143.821 20.3267 143.127 21 142.247 21.48C141.381 21.9467 140.407 22.18 139.327 22.18ZM139.327 19.74C139.834 19.74 140.307 19.62 140.747 19.38C141.201 19.1267 141.561 18.7533 141.827 18.26C142.094 17.7667 142.227 17.1667 142.227 16.46C142.227 15.4067 141.947 14.6 141.387 14.04C140.841 13.4667 140.167 13.18 139.367 13.18C138.567 13.18 137.894 13.4667 137.347 14.04C136.814 14.6 136.547 15.4067 136.547 16.46C136.547 17.5133 136.807 18.3267 137.327 18.9C137.861 19.46 138.527 19.74 139.327 19.74ZM160.921 10.76C162.281 10.76 163.375 11.18 164.201 12.02C165.041 12.8467 165.461 14.0067 165.461 15.5V22H162.661V15.88C162.661 15.0133 162.441 14.3533 162.001 13.9C161.561 13.4333 160.961 13.2 160.201 13.2C159.441 13.2 158.835 13.4333 158.381 13.9C157.941 14.3533 157.721 15.0133 157.721 15.88V22H154.921V15.88C154.921 15.0133 154.701 14.3533 154.261 13.9C153.821 13.4333 153.221 13.2 152.461 13.2C151.688 13.2 151.075 13.4333 150.621 13.9C150.181 14.3533 149.961 15.0133 149.961 15.88V22H147.161V10.92H149.961V12.26C150.321 11.7933 150.781 11.4267 151.341 11.16C151.915 10.8933 152.541 10.76 153.221 10.76C154.088 10.76 154.861 10.9467 155.541 11.32C156.221 11.68 156.748 12.2 157.121 12.88C157.481 12.24 158.001 11.7267 158.681 11.34C159.375 10.9533 160.121 10.76 160.921 10.76ZM199.512 12.52C199.872 12.0133 200.365 11.5933 200.992 11.26C201.632 10.9133 202.359 10.74 203.172 10.74C204.119 10.74 204.972 10.9733 205.732 11.44C206.505 11.9067 207.112 12.5733 207.552 13.44C208.005 14.2933 208.232 15.2867 208.232 16.42C208.232 17.5533 208.005 18.56 207.552 19.44C207.112 20.3067 206.505 20.98 205.732 21.46C204.972 21.94 204.119 22.18 203.172 22.18C202.359 22.18 201.639 22.0133 201.012 21.68C200.399 21.3467 199.899 20.9267 199.512 20.42V27.28H196.712V10.92H199.512V12.52ZM205.372 16.42C205.372 15.7533 205.232 15.18 204.952 14.7C204.685 14.2067 204.325 13.8333 203.872 13.58C203.432 13.3267 202.952 13.2 202.432 13.2C201.925 13.2 201.445 13.3333 200.992 13.6C200.552 13.8533 200.192 14.2267 199.912 14.72C199.645 15.2133 199.512 15.7933 199.512 16.46C199.512 17.1267 199.645 17.7067 199.912 18.2C200.192 18.6933 200.552 19.0733 200.992 19.34C201.445 19.5933 201.925 19.72 202.432 19.72C202.952 19.72 203.432 19.5867 203.872 19.32C204.325 19.0533 204.685 18.6733 204.952 18.18C205.232 17.6867 205.372 17.1 205.372 16.42ZM215.187 22.18C214.12 22.18 213.16 21.9467 212.307 21.48C211.453 21 210.78 20.3267 210.287 19.46C209.807 18.5933 209.567 17.5933 209.567 16.46C209.567 15.3267 209.813 14.3267 210.307 13.46C210.813 12.5933 211.5 11.9267 212.367 11.46C213.233 10.98 214.2 10.74 215.267 10.74C216.333 10.74 217.3 10.98 218.167 11.46C219.033 11.9267 219.713 12.5933 220.207 13.46C220.713 14.3267 220.967 15.3267 220.967 16.46C220.967 17.5933 220.707 18.5933 220.187 19.46C219.68 20.3267 218.987 21 218.107 21.48C217.24 21.9467 216.267 22.18 215.187 22.18ZM215.187 19.74C215.693 19.74 216.167 19.62 216.607 19.38C217.06 19.1267 217.42 18.7533 217.687 18.26C217.953 17.7667 218.087 17.1667 218.087 16.46C218.087 15.4067 217.807 14.6 217.247 14.04C216.7 13.4667 216.027 13.18 215.227 13.18C214.427 13.18 213.753 13.4667 213.207 14.04C212.673 14.6 212.407 15.4067 212.407 16.46C212.407 17.5133 212.667 18.3267 213.187 18.9C213.72 19.46 214.387 19.74 215.187 19.74ZM225.821 12.64C226.181 12.0533 226.647 11.5933 227.221 11.26C227.807 10.9267 228.474 10.76 229.221 10.76V13.7H228.481C227.601 13.7 226.934 13.9067 226.481 14.32C226.041 14.7333 225.821 15.4533 225.821 16.48V22H223.021V10.92H225.821V12.64ZM254.532 8.04L250.632 22H247.332L244.712 12.06L241.972 22L238.692 22.02L234.932 8.04H237.932L240.392 18.88L243.232 8.04H246.352L249.032 18.82L251.512 8.04H254.532ZM266.66 16.22C266.66 16.62 266.634 16.98 266.58 17.3H258.48C258.547 18.1 258.827 18.7267 259.32 19.18C259.814 19.6333 260.42 19.86 261.14 19.86C262.18 19.86 262.92 19.4133 263.36 18.52H266.38C266.06 19.5867 265.447 20.4667 264.54 21.16C263.634 21.84 262.52 22.18 261.2 22.18C260.134 22.18 259.174 21.9467 258.32 21.48C257.48 21 256.82 20.3267 256.34 19.46C255.874 18.5933 255.64 17.5933 255.64 16.46C255.64 15.3133 255.874 14.3067 256.34 13.44C256.807 12.5733 257.46 11.9067 258.3 11.44C259.14 10.9733 260.107 10.74 261.2 10.74C262.254 10.74 263.194 10.9667 264.02 11.42C264.86 11.8733 265.507 12.52 265.96 13.36C266.427 14.1867 266.66 15.14 266.66 16.22ZM263.76 15.42C263.747 14.7 263.487 14.1267 262.98 13.7C262.474 13.26 261.854 13.04 261.12 13.04C260.427 13.04 259.84 13.2533 259.36 13.68C258.894 14.0933 258.607 14.6733 258.5 15.42H263.76ZM267.984 16.42C267.984 15.3 268.204 14.3067 268.644 13.44C269.098 12.5733 269.704 11.9067 270.464 11.44C271.238 10.9733 272.098 10.74 273.044 10.74C273.871 10.74 274.591 10.9067 275.204 11.24C275.831 11.5733 276.331 11.9933 276.704 12.5V10.92H279.524V22H276.704V20.38C276.344 20.9 275.844 21.3333 275.204 21.68C274.578 22.0133 273.851 22.18 273.024 22.18C272.091 22.18 271.238 21.94 270.464 21.46C269.704 20.98 269.098 20.3067 268.644 19.44C268.204 18.56 267.984 17.5533 267.984 16.42ZM276.704 16.46C276.704 15.78 276.571 15.2 276.304 14.72C276.038 14.2267 275.678 13.8533 275.224 13.6C274.771 13.3333 274.284 13.2 273.764 13.2C273.244 13.2 272.764 13.3267 272.324 13.58C271.884 13.8333 271.524 14.2067 271.244 14.7C270.978 15.18 270.844 15.7533 270.844 16.42C270.844 17.0867 270.978 17.6733 271.244 18.18C271.524 18.6733 271.884 19.0533 272.324 19.32C272.778 19.5867 273.258 19.72 273.764 19.72C274.284 19.72 274.771 19.5933 275.224 19.34C275.678 19.0733 276.038 18.7 276.304 18.22C276.571 17.7267 276.704 17.14 276.704 16.46ZM286.499 22.18C285.592 22.18 284.779 22.02 284.059 21.7C283.339 21.3667 282.766 20.92 282.339 20.36C281.926 19.8 281.699 19.18 281.659 18.5H284.479C284.532 18.9267 284.739 19.28 285.099 19.56C285.472 19.84 285.932 19.98 286.479 19.98C287.012 19.98 287.426 19.8733 287.719 19.66C288.026 19.4467 288.179 19.1733 288.179 18.84C288.179 18.48 287.992 18.2133 287.619 18.04C287.259 17.8533 286.679 17.6533 285.879 17.44C285.052 17.24 284.372 17.0333 283.839 16.82C283.319 16.6067 282.866 16.28 282.479 15.84C282.106 15.4 281.919 14.8067 281.919 14.06C281.919 13.4467 282.092 12.8867 282.439 12.38C282.799 11.8733 283.306 11.4733 283.959 11.18C284.626 10.8867 285.406 10.74 286.299 10.74C287.619 10.74 288.672 11.0733 289.459 11.74C290.246 12.3933 290.679 13.28 290.759 14.4H288.079C288.039 13.96 287.852 13.6133 287.519 13.36C287.199 13.0933 286.766 12.96 286.219 12.96C285.712 12.96 285.319 13.0533 285.039 13.24C284.772 13.4267 284.639 13.6867 284.639 14.02C284.639 14.3933 284.826 14.68 285.199 14.88C285.572 15.0667 286.152 15.26 286.939 15.46C287.739 15.66 288.399 15.8667 288.919 16.08C289.439 16.2933 289.886 16.6267 290.259 17.08C290.646 17.52 290.846 18.1067 290.859 18.84C290.859 19.48 290.679 20.0533 290.319 20.56C289.972 21.0667 289.466 21.4667 288.799 21.76C288.146 22.04 287.379 22.18 286.499 22.18ZM299.717 22L295.957 17.28V22H293.157V7.2H295.957V15.62L299.677 10.92H303.317L298.437 16.48L303.357 22H299.717Z" fill="#DD51CB"/>
</svg>
