<svg width="237" height="165" viewBox="0 0 237 165" fill="none" xmlns="http://www.w3.org/2000/svg">
<g filter="url(#filter0_d_6_98)">
<path d="M50.432 70L41.472 53.36H40.128V70H27.584V24.88H47.36C50.9867 24.88 54.0587 25.52 56.576 26.8C59.0933 28.0373 60.992 29.7653 62.272 31.984C63.552 34.16 64.192 36.6133 64.192 39.344C64.192 42.416 63.3387 45.1253 61.632 47.472C59.968 49.776 57.5147 51.4187 54.272 52.4L64.448 70H50.432ZM40.128 44.784H46.336C48.0427 44.784 49.3227 44.3787 50.176 43.568C51.0293 42.7573 51.456 41.584 51.456 40.048C51.456 38.5973 51.008 37.4667 50.112 36.656C49.2587 35.8027 48 35.376 46.336 35.376H40.128V44.784ZM67.8485 52.016C67.8485 48.304 68.5098 45.0613 69.8325 42.288C71.1978 39.5147 73.0325 37.3813 75.3365 35.888C77.6832 34.3947 80.2858 33.648 83.1445 33.648C85.6192 33.648 87.7525 34.1387 89.5445 35.12C91.3365 36.1013 92.7232 37.424 93.7045 39.088V34.096H106.249V70H93.7045V65.008C92.7232 66.672 91.3152 67.9947 89.4805 68.976C87.6885 69.9573 85.5765 70.448 83.1445 70.448C80.2858 70.448 77.6832 69.7013 75.3365 68.208C73.0325 66.7147 71.1978 64.5813 69.8325 61.808C68.5098 58.992 67.8485 55.728 67.8485 52.016ZM93.7045 52.016C93.7045 49.712 93.0645 47.8987 91.7845 46.576C90.5472 45.2533 89.0112 44.592 87.1765 44.592C85.2992 44.592 83.7418 45.2533 82.5045 46.576C81.2672 47.856 80.6485 49.6693 80.6485 52.016C80.6485 54.32 81.2672 56.1547 82.5045 57.52C83.7418 58.8427 85.2992 59.504 87.1765 59.504C89.0112 59.504 90.5472 58.8427 91.7845 57.52C93.0645 56.1973 93.7045 54.3627 93.7045 52.016ZM96.2005 25.392L80.2005 31.664V23.152L96.2005 15.92V25.392ZM111.349 52.016C111.349 48.304 112.01 45.0613 113.333 42.288C114.698 39.5147 116.554 37.3813 118.901 35.888C121.247 34.3947 123.85 33.648 126.708 33.648C129.013 33.648 131.061 34.1387 132.853 35.12C134.687 36.0587 136.117 37.36 137.141 39.024V22.64H149.749V70H137.141V65.008C136.159 66.672 134.773 67.9947 132.981 68.976C131.189 69.9573 129.077 70.448 126.645 70.448C123.786 70.448 121.183 69.7013 118.837 68.208C116.533 66.7147 114.698 64.5813 113.333 61.808C112.01 58.992 111.349 55.728 111.349 52.016ZM137.205 52.016C137.205 49.712 136.565 47.8987 135.285 46.576C134.047 45.2533 132.511 44.592 130.677 44.592C128.799 44.592 127.242 45.2533 126.005 46.576C124.767 47.856 124.149 49.6693 124.149 52.016C124.149 54.32 124.767 56.1547 126.005 57.52C127.242 58.8427 128.799 59.504 130.677 59.504C132.511 59.504 134.047 58.8427 135.285 57.52C136.565 56.1973 137.205 54.3627 137.205 52.016ZM163.233 30.768C161.014 30.768 159.222 30.1707 157.857 28.976C156.534 27.7387 155.873 26.2027 155.873 24.368C155.873 22.4907 156.534 20.9333 157.857 19.696C159.222 18.4587 161.014 17.84 163.233 17.84C165.409 17.84 167.158 18.4587 168.481 19.696C169.846 20.9333 170.529 22.4907 170.529 24.368C170.529 26.2027 169.846 27.7387 168.481 28.976C167.158 30.1707 165.409 30.768 163.233 30.768ZM169.441 34.096V70H156.897V34.096H169.441ZM193.288 70.448C189.704 70.448 186.483 69.7013 183.624 68.208C180.808 66.7147 178.589 64.5813 176.968 61.808C175.347 59.0347 174.536 55.7707 174.536 52.016C174.536 48.304 175.347 45.0613 176.968 42.288C178.632 39.5147 180.872 37.3813 183.688 35.888C186.547 34.3947 189.768 33.648 193.352 33.648C196.936 33.648 200.136 34.3947 202.952 35.888C205.811 37.3813 208.051 39.5147 209.672 42.288C211.336 45.0613 212.168 48.304 212.168 52.016C212.168 55.728 211.336 58.992 209.672 61.808C208.051 64.5813 205.811 66.7147 202.952 68.208C200.093 69.7013 196.872 70.448 193.288 70.448ZM193.288 59.568C195.037 59.568 196.488 58.928 197.64 57.648C198.835 56.3253 199.432 54.448 199.432 52.016C199.432 49.584 198.835 47.728 197.64 46.448C196.488 45.168 195.059 44.528 193.352 44.528C191.645 44.528 190.216 45.168 189.064 46.448C187.912 47.728 187.336 49.584 187.336 52.016C187.336 54.4907 187.891 56.368 189 57.648C190.109 58.928 191.539 59.568 193.288 59.568Z" fill="white"/>
</g>
<g filter="url(#filter1_d_6_98)">
<path d="M4.048 98.344C4.048 93.9067 4.96533 89.96 6.8 86.504C8.67733 83.0053 11.3227 80.296 14.736 78.376C18.1493 76.4133 22.0747 75.432 26.512 75.432C32.144 75.432 36.88 76.9467 40.72 79.976C44.56 82.9627 47.0347 87.0373 48.144 92.2H34.64C33.8293 90.4933 32.6987 89.192 31.248 88.296C29.84 87.4 28.1973 86.952 26.32 86.952C23.4187 86.952 21.0933 87.9973 19.344 90.088C17.6373 92.136 16.784 94.888 16.784 98.344C16.784 101.843 17.6373 104.637 19.344 106.728C21.0933 108.776 23.4187 109.8 26.32 109.8C28.1973 109.8 29.84 109.352 31.248 108.456C32.6987 107.56 33.8293 106.259 34.64 104.552H48.144C47.0347 109.715 44.56 113.811 40.72 116.84C36.88 119.827 32.144 121.32 26.512 121.32C22.0747 121.32 18.1493 120.36 14.736 118.44C11.3227 116.477 8.67733 113.768 6.8 110.312C4.96533 106.813 4.048 102.824 4.048 98.344ZM66.628 91.432C68.036 89.384 69.7427 87.7627 71.748 86.568C73.7533 85.3733 75.908 84.776 78.212 84.776V98.152H74.692C71.9613 98.152 69.9347 98.6853 68.612 99.752C67.2893 100.819 66.628 102.675 66.628 105.32V121H54.084V85.096H66.628V91.432ZM80.661 103.016C80.661 99.304 81.3223 96.0613 82.645 93.288C84.0103 90.5147 85.845 88.3813 88.149 86.888C90.4957 85.3947 93.0983 84.648 95.957 84.648C98.4317 84.648 100.565 85.1387 102.357 86.12C104.149 87.1013 105.536 88.424 106.517 90.088V85.096H119.061V121H106.517V116.008C105.536 117.672 104.128 118.995 102.293 119.976C100.501 120.957 98.389 121.448 95.957 121.448C93.0983 121.448 90.4957 120.701 88.149 119.208C85.845 117.715 84.0103 115.581 82.645 112.808C81.3223 109.992 80.661 106.728 80.661 103.016ZM106.517 103.016C106.517 100.712 105.877 98.8987 104.597 97.576C103.36 96.2533 101.824 95.592 99.989 95.592C98.1117 95.592 96.5543 96.2533 95.317 97.576C94.0797 98.856 93.461 100.669 93.461 103.016C93.461 105.32 94.0797 107.155 95.317 108.52C96.5543 109.843 98.1117 110.504 99.989 110.504C101.824 110.504 103.36 109.843 104.597 108.52C105.877 107.197 106.517 105.363 106.517 103.016ZM138.113 110.568H153.409V121H124.289V111.08L138.561 95.528H124.417V85.096H152.897V95.016L138.113 110.568ZM170.551 110.568H185.847V121H156.727V111.08L170.999 95.528H156.855V85.096H185.335V95.016L170.551 110.568ZM232.108 75.88L216.236 106.664V121H203.628V106.664L187.756 75.88H202.092L210.028 93.288L217.964 75.88H232.108Z" fill="white"/>
</g>
<g filter="url(#filter2_d_6_98)">
<path d="M50.71 131.67C52.634 131.67 54.3153 132.06 55.754 132.84C57.21 133.603 58.328 134.677 59.108 136.064C59.888 137.451 60.278 139.037 60.278 140.822C60.278 142.59 59.8793 144.167 59.082 145.554C58.302 146.941 57.184 148.033 55.728 148.83C54.2893 149.61 52.6167 150 50.71 150H43.456V131.67H50.71ZM50.32 145.502C51.8107 145.502 52.9807 145.095 53.83 144.28C54.6793 143.465 55.104 142.313 55.104 140.822C55.104 139.314 54.6793 138.153 53.83 137.338C52.9807 136.506 51.8107 136.09 50.32 136.09H48.552V145.502H50.32ZM69.3611 150.182C67.9051 150.182 66.5965 149.879 65.4351 149.272C64.2911 148.665 63.3898 147.799 62.7311 146.672C62.0725 145.545 61.7431 144.219 61.7431 142.694C61.7431 141.186 62.0725 139.869 62.7311 138.742C63.4071 137.615 64.3171 136.749 65.4611 136.142C66.6225 135.535 67.9311 135.232 69.3871 135.232C70.8431 135.232 72.1431 135.535 73.2871 136.142C74.4485 136.749 75.3585 137.615 76.0171 138.742C76.6931 139.869 77.0311 141.186 77.0311 142.694C77.0311 144.202 76.6931 145.528 76.0171 146.672C75.3585 147.799 74.4485 148.665 73.2871 149.272C72.1258 149.879 70.8171 150.182 69.3611 150.182ZM69.3611 145.762C70.0718 145.762 70.6611 145.502 71.1291 144.982C71.6145 144.445 71.8571 143.682 71.8571 142.694C71.8571 141.706 71.6145 140.952 71.1291 140.432C70.6611 139.912 70.0805 139.652 69.3871 139.652C68.6938 139.652 68.1131 139.912 67.6451 140.432C67.1771 140.952 66.9431 141.706 66.9431 142.694C66.9431 143.699 67.1685 144.462 67.6191 144.982C68.0698 145.502 68.6505 145.762 69.3611 145.762ZM90.295 150.182C88.9777 150.182 87.799 149.965 86.759 149.532C85.7363 149.081 84.9217 148.475 84.315 147.712C83.7257 146.932 83.3963 146.057 83.327 145.086H88.267C88.3363 145.554 88.553 145.918 88.917 146.178C89.281 146.438 89.7317 146.568 90.269 146.568C90.685 146.568 91.0143 146.481 91.257 146.308C91.4997 146.135 91.621 145.909 91.621 145.632C91.621 145.268 91.4217 144.999 91.023 144.826C90.6243 144.653 89.9657 144.462 89.047 144.254C88.007 144.046 87.1403 143.812 86.447 143.552C85.7537 143.292 85.147 142.867 84.627 142.278C84.1243 141.689 83.873 140.891 83.873 139.886C83.873 139.019 84.107 138.239 84.575 137.546C85.043 136.835 85.7277 136.272 86.629 135.856C87.5477 135.44 88.6483 135.232 89.931 135.232C91.8377 135.232 93.337 135.7 94.429 136.636C95.521 137.572 96.1537 138.803 96.327 140.328H91.725C91.6383 139.86 91.4303 139.505 91.101 139.262C90.789 139.002 90.3643 138.872 89.827 138.872C89.411 138.872 89.0903 138.95 88.865 139.106C88.657 139.262 88.553 139.479 88.553 139.756C88.553 140.103 88.7523 140.371 89.151 140.562C89.5497 140.735 90.191 140.917 91.075 141.108C92.1323 141.333 93.0077 141.585 93.701 141.862C94.4117 142.139 95.027 142.59 95.547 143.214C96.0843 143.821 96.353 144.653 96.353 145.71C96.353 146.559 96.1017 147.322 95.599 147.998C95.1137 148.674 94.4117 149.211 93.493 149.61C92.5917 149.991 91.5257 150.182 90.295 150.182ZM112.794 142.538C112.794 142.937 112.768 143.335 112.716 143.734H103.07C103.122 144.531 103.339 145.129 103.72 145.528C104.119 145.909 104.622 146.1 105.228 146.1C106.078 146.1 106.684 145.719 107.048 144.956H112.482C112.257 145.961 111.815 146.863 111.156 147.66C110.515 148.44 109.7 149.055 108.712 149.506C107.724 149.957 106.632 150.182 105.436 150.182C103.998 150.182 102.715 149.879 101.588 149.272C100.479 148.665 99.6037 147.799 98.9623 146.672C98.3383 145.545 98.0263 144.219 98.0263 142.694C98.0263 141.169 98.3383 139.851 98.9623 138.742C99.5863 137.615 100.453 136.749 101.562 136.142C102.689 135.535 103.98 135.232 105.436 135.232C106.875 135.232 108.149 135.527 109.258 136.116C110.368 136.705 111.234 137.555 111.858 138.664C112.482 139.756 112.794 141.047 112.794 142.538ZM107.594 141.264C107.594 140.64 107.386 140.155 106.97 139.808C106.554 139.444 106.034 139.262 105.41 139.262C104.786 139.262 104.275 139.435 103.876 139.782C103.478 140.111 103.218 140.605 103.096 141.264H107.594ZM129.804 135.414V150H124.682V147.92C124.248 148.579 123.65 149.116 122.888 149.532C122.125 149.931 121.25 150.13 120.262 150.13C118.563 150.13 117.22 149.575 116.232 148.466C115.261 147.339 114.776 145.814 114.776 143.89V135.414H119.846V143.24C119.846 144.072 120.062 144.731 120.496 145.216C120.946 145.684 121.536 145.918 122.264 145.918C123.009 145.918 123.598 145.684 124.032 145.216C124.465 144.731 124.682 144.072 124.682 143.24V135.414H129.804ZM140.229 134.062C139.327 134.062 138.599 133.819 138.045 133.334C137.507 132.831 137.239 132.207 137.239 131.462C137.239 130.699 137.507 130.067 138.045 129.564C138.599 129.061 139.327 128.81 140.229 128.81C141.113 128.81 141.823 129.061 142.361 129.564C142.915 130.067 143.193 130.699 143.193 131.462C143.193 132.207 142.915 132.831 142.361 133.334C141.823 133.819 141.113 134.062 140.229 134.062ZM142.777 151.43C142.777 155.122 140.922 156.968 137.213 156.968H135.367V152.626H136.459C136.892 152.626 137.204 152.539 137.395 152.366C137.585 152.193 137.681 151.907 137.681 151.508V135.414H142.777V151.43ZM159.589 142.538C159.589 142.937 159.563 143.335 159.511 143.734H149.865C149.917 144.531 150.134 145.129 150.515 145.528C150.914 145.909 151.417 146.1 152.023 146.1C152.873 146.1 153.479 145.719 153.843 144.956H159.277C159.052 145.961 158.61 146.863 157.951 147.66C157.31 148.44 156.495 149.055 155.507 149.506C154.519 149.957 153.427 150.182 152.231 150.182C150.793 150.182 149.51 149.879 148.383 149.272C147.274 148.665 146.399 147.799 145.757 146.672C145.133 145.545 144.821 144.219 144.821 142.694C144.821 141.169 145.133 139.851 145.757 138.742C146.381 137.615 147.248 136.749 148.357 136.142C149.484 135.535 150.775 135.232 152.231 135.232C153.67 135.232 154.944 135.527 156.053 136.116C157.163 136.705 158.029 137.555 158.653 138.664C159.277 139.756 159.589 141.047 159.589 142.538ZM154.389 141.264C154.389 140.64 154.181 140.155 153.765 139.808C153.349 139.444 152.829 139.262 152.205 139.262C151.581 139.262 151.07 139.435 150.671 139.782C150.273 140.111 150.013 140.605 149.891 141.264H154.389ZM164.249 134.062C163.347 134.062 162.619 133.819 162.065 133.334C161.527 132.831 161.259 132.207 161.259 131.462C161.259 130.699 161.527 130.067 162.065 129.564C162.619 129.061 163.347 128.81 164.249 128.81C165.133 128.81 165.843 129.061 166.381 129.564C166.935 130.067 167.213 130.699 167.213 131.462C167.213 132.207 166.935 132.831 166.381 133.334C165.843 133.819 165.133 134.062 164.249 134.062ZM166.771 135.414V150H161.675V135.414H166.771ZM178.279 145.658V150H176.069C172.342 150 170.479 148.154 170.479 144.462V139.652H168.685V135.414H170.479V131.878H175.601V135.414H178.253V139.652H175.601V144.54C175.601 144.939 175.687 145.225 175.861 145.398C176.051 145.571 176.363 145.658 176.797 145.658H178.279ZM187.402 150.182C185.946 150.182 184.637 149.879 183.476 149.272C182.332 148.665 181.431 147.799 180.772 146.672C180.113 145.545 179.784 144.219 179.784 142.694C179.784 141.186 180.113 139.869 180.772 138.742C181.448 137.615 182.358 136.749 183.502 136.142C184.663 135.535 185.972 135.232 187.428 135.232C188.884 135.232 190.184 135.535 191.328 136.142C192.489 136.749 193.399 137.615 194.058 138.742C194.734 139.869 195.072 141.186 195.072 142.694C195.072 144.202 194.734 145.528 194.058 146.672C193.399 147.799 192.489 148.665 191.328 149.272C190.167 149.879 188.858 150.182 187.402 150.182ZM187.402 145.762C188.113 145.762 188.702 145.502 189.17 144.982C189.655 144.445 189.898 143.682 189.898 142.694C189.898 141.706 189.655 140.952 189.17 140.432C188.702 139.912 188.121 139.652 187.428 139.652C186.735 139.652 186.154 139.912 185.686 140.432C185.218 140.952 184.984 141.706 184.984 142.694C184.984 143.699 185.209 144.462 185.66 144.982C186.111 145.502 186.691 145.762 187.402 145.762Z" fill="#EB57D8"/>
</g>
<defs>
<filter id="filter0_d_6_98" x="23.584" y="15.92" width="192.584" height="62.528" filterUnits="userSpaceOnUse" color-interpolation-filters="sRGB">
<feFlood flood-opacity="0" result="BackgroundImageFix"/>
<feColorMatrix in="SourceAlpha" type="matrix" values="0 0 0 0 0 0 0 0 0 0 0 0 0 0 0 0 0 0 127 0" result="hardAlpha"/>
<feOffset dy="4"/>
<feGaussianBlur stdDeviation="2"/>
<feComposite in2="hardAlpha" operator="out"/>
<feColorMatrix type="matrix" values="0 0 0 0 0 0 0 0 0 0 0 0 0 0 0 0 0 0 0.25 0"/>
<feBlend mode="normal" in2="BackgroundImageFix" result="effect1_dropShadow_6_98"/>
<feBlend mode="normal" in="SourceGraphic" in2="effect1_dropShadow_6_98" result="shape"/>
</filter>
<filter id="filter1_d_6_98" x="0.0479965" y="75.432" width="236.06" height="54.016" filterUnits="userSpaceOnUse" color-interpolation-filters="sRGB">
<feFlood flood-opacity="0" result="BackgroundImageFix"/>
<feColorMatrix in="SourceAlpha" type="matrix" values="0 0 0 0 0 0 0 0 0 0 0 0 0 0 0 0 0 0 127 0" result="hardAlpha"/>
<feOffset dy="4"/>
<feGaussianBlur stdDeviation="2"/>
<feComposite in2="hardAlpha" operator="out"/>
<feColorMatrix type="matrix" values="0 0 0 0 0 0 0 0 0 0 0 0 0 0 0 0 0 0 0.25 0"/>
<feBlend mode="normal" in2="BackgroundImageFix" result="effect1_dropShadow_6_98"/>
<feBlend mode="normal" in="SourceGraphic" in2="effect1_dropShadow_6_98" result="shape"/>
</filter>
<filter id="filter2_d_6_98" x="39.456" y="128.81" width="159.616" height="36.158" filterUnits="userSpaceOnUse" color-interpolation-filters="sRGB">
<feFlood flood-opacity="0" result="BackgroundImageFix"/>
<feColorMatrix in="SourceAlpha" type="matrix" values="0 0 0 0 0 0 0 0 0 0 0 0 0 0 0 0 0 0 127 0" result="hardAlpha"/>
<feOffset dy="4"/>
<feGaussianBlur stdDeviation="2"/>
<feComposite in2="hardAlpha" operator="out"/>
<feColorMatrix type="matrix" values="0 0 0 0 0 0 0 0 0 0 0 0 0 0 0 0 0 0 0.25 0"/>
<feBlend mode="normal" in2="BackgroundImageFix" result="effect1_dropShadow_6_98"/>
<feBlend mode="normal" in="SourceGraphic" in2="effect1_dropShadow_6_98" result="shape"/>
</filter>
</defs>
</svg>
