<svg width="129" height="25" viewBox="0 0 129 25" fill="none" xmlns="http://www.w3.org/2000/svg">
<g filter="url(#filter0_d_13_202)">
<path d="M10.434 16L7.914 11.32H7.536V16H4.008V3.31H9.57C10.59 3.31 11.454 3.49 12.162 3.85C12.87 4.198 13.404 4.684 13.764 5.308C14.124 5.92 14.304 6.61 14.304 7.378C14.304 8.242 14.064 9.004 13.584 9.664C13.116 10.312 12.426 10.774 11.514 11.05L14.376 16H10.434ZM7.536 8.908H9.282C9.762 8.908 10.122 8.794 10.362 8.566C10.602 8.338 10.722 8.008 10.722 7.576C10.722 7.168 10.596 6.85 10.344 6.622C10.104 6.382 9.75 6.262 9.282 6.262H7.536V8.908ZM15.3324 10.942C15.3324 9.898 15.5184 8.986 15.8904 8.206C16.2744 7.426 16.7904 6.826 17.4384 6.406C18.0984 5.986 18.8304 5.776 19.6344 5.776C20.3304 5.776 20.9304 5.914 21.4344 6.19C21.9384 6.466 22.3284 6.838 22.6044 7.306V5.902H26.1324V16H22.6044V14.596C22.3284 15.064 21.9324 15.436 21.4164 15.712C20.9124 15.988 20.3184 16.126 19.6344 16.126C18.8304 16.126 18.0984 15.916 17.4384 15.496C16.7904 15.076 16.2744 14.476 15.8904 13.696C15.5184 12.904 15.3324 11.986 15.3324 10.942ZM22.6044 10.942C22.6044 10.294 22.4244 9.784 22.0644 9.412C21.7164 9.04 21.2844 8.854 20.7684 8.854C20.2404 8.854 19.8024 9.04 19.4544 9.412C19.1064 9.772 18.9324 10.282 18.9324 10.942C18.9324 11.59 19.1064 12.106 19.4544 12.49C19.8024 12.862 20.2404 13.048 20.7684 13.048C21.2844 13.048 21.7164 12.862 22.0644 12.49C22.4244 12.118 22.6044 11.602 22.6044 10.942ZM23.3064 3.454L18.8064 5.218V2.824L23.3064 0.789999V3.454ZM27.5668 10.942C27.5668 9.898 27.7528 8.986 28.1248 8.206C28.5088 7.426 29.0308 6.826 29.6908 6.406C30.3508 5.986 31.0828 5.776 31.8868 5.776C32.5348 5.776 33.1108 5.914 33.6148 6.19C34.1308 6.454 34.5328 6.82 34.8208 7.288V2.68H38.3668V16H34.8208V14.596C34.5448 15.064 34.1548 15.436 33.6508 15.712C33.1468 15.988 32.5528 16.126 31.8688 16.126C31.0648 16.126 30.3328 15.916 29.6728 15.496C29.0248 15.076 28.5088 14.476 28.1248 13.696C27.7528 12.904 27.5668 11.986 27.5668 10.942ZM34.8388 10.942C34.8388 10.294 34.6588 9.784 34.2988 9.412C33.9508 9.04 33.5188 8.854 33.0028 8.854C32.4748 8.854 32.0368 9.04 31.6888 9.412C31.3408 9.772 31.1668 10.282 31.1668 10.942C31.1668 11.59 31.3408 12.106 31.6888 12.49C32.0368 12.862 32.4748 13.048 33.0028 13.048C33.5188 13.048 33.9508 12.862 34.2988 12.49C34.6588 12.118 34.8388 11.602 34.8388 10.942ZM42.1591 4.966C41.5351 4.966 41.0311 4.798 40.6471 4.462C40.2751 4.114 40.0891 3.682 40.0891 3.166C40.0891 2.638 40.2751 2.2 40.6471 1.852C41.0311 1.504 41.5351 1.33 42.1591 1.33C42.7711 1.33 43.2631 1.504 43.6351 1.852C44.0191 2.2 44.2111 2.638 44.2111 3.166C44.2111 3.682 44.0191 4.114 43.6351 4.462C43.2631 4.798 42.7711 4.966 42.1591 4.966ZM43.9051 5.902V16H40.3771V5.902H43.9051ZM50.6123 16.126C49.6043 16.126 48.6983 15.916 47.8943 15.496C47.1023 15.076 46.4783 14.476 46.0223 13.696C45.5663 12.916 45.3383 11.998 45.3383 10.942C45.3383 9.898 45.5663 8.986 46.0223 8.206C46.4903 7.426 47.1203 6.826 47.9123 6.406C48.7163 5.986 49.6223 5.776 50.6303 5.776C51.6383 5.776 52.5383 5.986 53.3303 6.406C54.1343 6.826 54.7643 7.426 55.2203 8.206C55.6883 8.986 55.9223 9.898 55.9223 10.942C55.9223 11.986 55.6883 12.904 55.2203 13.696C54.7643 14.476 54.1343 15.076 53.3303 15.496C52.5263 15.916 51.6203 16.126 50.6123 16.126ZM50.6123 13.066C51.1043 13.066 51.5123 12.886 51.8363 12.526C52.1723 12.154 52.3403 11.626 52.3403 10.942C52.3403 10.258 52.1723 9.736 51.8363 9.376C51.5123 9.016 51.1103 8.836 50.6303 8.836C50.1503 8.836 49.7483 9.016 49.4243 9.376C49.1003 9.736 48.9383 10.258 48.9383 10.942C48.9383 11.638 49.0943 12.166 49.4062 12.526C49.7183 12.886 50.1203 13.066 50.6123 13.066ZM60.3709 9.628C60.3709 8.38 60.6289 7.27 61.1449 6.298C61.6729 5.314 62.4169 4.552 63.3769 4.012C64.3369 3.46 65.4409 3.184 66.6889 3.184C68.2729 3.184 69.6049 3.61 70.6849 4.462C71.7649 5.302 72.4609 6.448 72.7729 7.9H68.9749C68.7469 7.42 68.4289 7.054 68.0209 6.802C67.6249 6.55 67.1629 6.424 66.6349 6.424C65.8189 6.424 65.1649 6.718 64.6729 7.306C64.1929 7.882 63.9529 8.656 63.9529 9.628C63.9529 10.612 64.1929 11.398 64.6729 11.986C65.1649 12.562 65.8189 12.85 66.6349 12.85C67.1629 12.85 67.6249 12.724 68.0209 12.472C68.4289 12.22 68.7469 11.854 68.9749 11.374H72.7729C72.4609 12.826 71.7649 13.978 70.6849 14.83C69.6049 15.67 68.2729 16.09 66.6889 16.09C65.4409 16.09 64.3369 15.82 63.3769 15.28C62.4169 14.728 61.6729 13.966 61.1449 12.994C60.6289 12.01 60.3709 10.888 60.3709 9.628ZM77.9715 7.684C78.3675 7.108 78.8475 6.652 79.4115 6.316C79.9755 5.98 80.5815 5.812 81.2295 5.812V9.574H80.2395C79.4715 9.574 78.9015 9.724 78.5295 10.024C78.1575 10.324 77.9715 10.846 77.9715 11.59V16H74.4435V5.902H77.9715V7.684ZM81.9183 10.942C81.9183 9.898 82.1043 8.986 82.4763 8.206C82.8603 7.426 83.3763 6.826 84.0243 6.406C84.6843 5.986 85.4163 5.776 86.2203 5.776C86.9163 5.776 87.5163 5.914 88.0203 6.19C88.5243 6.466 88.9143 6.838 89.1903 7.306V5.902H92.7183V16H89.1903V14.596C88.9143 15.064 88.5183 15.436 88.0023 15.712C87.4983 15.988 86.9043 16.126 86.2203 16.126C85.4163 16.126 84.6843 15.916 84.0243 15.496C83.3763 15.076 82.8603 14.476 82.4763 13.696C82.1043 12.904 81.9183 11.986 81.9183 10.942ZM89.1903 10.942C89.1903 10.294 89.0103 9.784 88.6503 9.412C88.3023 9.04 87.8703 8.854 87.3543 8.854C86.8263 8.854 86.3883 9.04 86.0403 9.412C85.6923 9.772 85.5183 10.282 85.5183 10.942C85.5183 11.59 85.6923 12.106 86.0403 12.49C86.3883 12.862 86.8263 13.048 87.3543 13.048C87.8703 13.048 88.3023 12.862 88.6503 12.49C89.0103 12.118 89.1903 11.602 89.1903 10.942ZM98.0767 13.066H102.379V16H94.1887V13.21L98.2027 8.836H94.2247V5.902H102.235V8.692L98.0767 13.066ZM107.2 13.066H111.502V16H103.312V13.21L107.326 8.836H103.348V5.902H111.358V8.692L107.2 13.066ZM124.513 3.31L120.049 11.968V16H116.503V11.968L112.039 3.31H116.071L118.303 8.206L120.535 3.31H124.513Z" fill="#EB57D8"/>
</g>
<defs>
<filter id="filter0_d_13_202" x="0.00799561" y="0.790009" width="128.505" height="23.336" filterUnits="userSpaceOnUse" color-interpolation-filters="sRGB">
<feFlood flood-opacity="0" result="BackgroundImageFix"/>
<feColorMatrix in="SourceAlpha" type="matrix" values="0 0 0 0 0 0 0 0 0 0 0 0 0 0 0 0 0 0 127 0" result="hardAlpha"/>
<feOffset dy="4"/>
<feGaussianBlur stdDeviation="2"/>
<feComposite in2="hardAlpha" operator="out"/>
<feColorMatrix type="matrix" values="0 0 0 0 0 0 0 0 0 0 0 0 0 0 0 0 0 0 0.25 0"/>
<feBlend mode="normal" in2="BackgroundImageFix" result="effect1_dropShadow_13_202"/>
<feBlend mode="normal" in="SourceGraphic" in2="effect1_dropShadow_13_202" result="shape"/>
</filter>
</defs>
</svg>
