<svg width="313" height="27" viewBox="0 0 313 27" fill="none" xmlns="http://www.w3.org/2000/svg">
<path d="M13.056 3.248V5.96H8.592V20H5.232V5.96H0.768V3.248H13.056ZM27.8676 13.064C27.8676 13.544 27.8356 13.976 27.7716 14.36H18.0516C18.1316 15.32 18.4676 16.072 19.0596 16.616C19.6516 17.16 20.3796 17.432 21.2436 17.432C22.4916 17.432 23.3796 16.896 23.9076 15.824H27.5316C27.1476 17.104 26.4116 18.16 25.3236 18.992C24.2356 19.808 22.8996 20.216 21.3156 20.216C20.0356 20.216 18.8836 19.936 17.8596 19.376C16.8516 18.8 16.0596 17.992 15.4836 16.952C14.9236 15.912 14.6436 14.712 14.6436 13.352C14.6436 11.976 14.9236 10.768 15.4836 9.728C16.0436 8.688 16.8276 7.888 17.8356 7.328C18.8436 6.768 20.0036 6.488 21.3156 6.488C22.5796 6.488 23.7076 6.76 24.6996 7.304C25.7076 7.848 26.4836 8.624 27.0276 9.632C27.5876 10.624 27.8676 11.768 27.8676 13.064ZM24.3876 12.104C24.3716 11.24 24.0596 10.552 23.4516 10.04C22.8436 9.512 22.0996 9.248 21.2196 9.248C20.3876 9.248 19.6836 9.504 19.1076 10.016C18.5476 10.512 18.2036 11.208 18.0756 12.104H24.3876ZM34.2321 9.464V15.896C34.2321 16.344 34.3361 16.672 34.5441 16.88C34.7681 17.072 35.1361 17.168 35.6481 17.168H37.2081V20H35.0961C32.2641 20 30.8481 18.624 30.8481 15.872V9.464H29.2641V6.704H30.8481V3.416H34.2321V6.704H37.2081V9.464H34.2321ZM45.5288 20.216C44.2488 20.216 43.0968 19.936 42.0728 19.376C41.0488 18.8 40.2408 17.992 39.6488 16.952C39.0728 15.912 38.7848 14.712 38.7848 13.352C38.7848 11.992 39.0808 10.792 39.6728 9.752C40.2808 8.712 41.1048 7.912 42.1448 7.352C43.1848 6.776 44.3448 6.488 45.6248 6.488C46.9048 6.488 48.0648 6.776 49.1048 7.352C50.1448 7.912 50.9608 8.712 51.5528 9.752C52.1608 10.792 52.4648 11.992 52.4648 13.352C52.4648 14.712 52.1528 15.912 51.5287 16.952C50.9208 17.992 50.0888 18.8 49.0328 19.376C47.9928 19.936 46.8248 20.216 45.5288 20.216ZM45.5288 17.288C46.1368 17.288 46.7048 17.144 47.2328 16.856C47.7768 16.552 48.2088 16.104 48.5288 15.512C48.8488 14.92 49.0088 14.2 49.0088 13.352C49.0088 12.088 48.6728 11.12 48.0008 10.448C47.3448 9.76 46.5368 9.416 45.5768 9.416C44.6168 9.416 43.8088 9.76 43.1528 10.448C42.5128 11.12 42.1928 12.088 42.1928 13.352C42.1928 14.616 42.5048 15.592 43.1288 16.28C43.7688 16.952 44.5688 17.288 45.5288 17.288ZM70.8722 10.016V12.848H60.6962V10.016H70.8722ZM86.1431 20.168C84.9751 20.168 83.9191 19.968 82.9751 19.568C82.0471 19.168 81.3111 18.592 80.7671 17.84C80.2231 17.088 79.9431 16.2 79.9271 15.176H83.5271C83.5751 15.864 83.8151 16.408 84.2471 16.808C84.6951 17.208 85.3031 17.408 86.0711 17.408C86.8551 17.408 87.4711 17.224 87.9191 16.856C88.3671 16.472 88.5911 15.976 88.5911 15.368C88.5911 14.872 88.4391 14.464 88.1351 14.144C87.8311 13.824 87.4471 13.576 86.9831 13.4C86.5351 13.208 85.9111 13 85.1111 12.776C84.0231 12.456 83.1351 12.144 82.4471 11.84C81.7751 11.52 81.1911 11.048 80.6951 10.424C80.2151 9.784 79.9751 8.936 79.9751 7.88C79.9751 6.888 80.2231 6.024 80.7191 5.288C81.2151 4.552 81.9111 3.992 82.8071 3.608C83.7031 3.208 84.7271 3.008 85.8791 3.008C87.6071 3.008 89.0071 3.432 90.0791 4.28C91.1671 5.112 91.7671 6.28 91.8791 7.784H88.1831C88.1511 7.208 87.9031 6.736 87.4391 6.368C86.9911 5.984 86.3911 5.792 85.6391 5.792C84.9831 5.792 84.4551 5.96 84.0551 6.296C83.6711 6.632 83.4791 7.12 83.4791 7.76C83.4791 8.208 83.6231 8.584 83.9111 8.888C84.2151 9.176 84.5831 9.416 85.0151 9.608C85.4631 9.784 86.0871 9.992 86.8871 10.232C87.9751 10.552 88.8631 10.872 89.5511 11.192C90.2391 11.512 90.8311 11.992 91.3271 12.632C91.8231 13.272 92.0711 14.112 92.0711 15.152C92.0711 16.048 91.8391 16.88 91.3751 17.648C90.9111 18.416 90.2311 19.032 89.3351 19.496C88.4391 19.944 87.3751 20.168 86.1431 20.168ZM94.1201 13.304C94.1201 11.96 94.3841 10.768 94.9121 9.728C95.4561 8.688 96.1841 7.888 97.0961 7.328C98.0241 6.768 99.0561 6.488 100.192 6.488C101.184 6.488 102.048 6.688 102.784 7.088C103.536 7.488 104.136 7.992 104.584 8.6V6.704H107.968V20H104.584V18.056C104.152 18.68 103.552 19.2 102.784 19.616C102.032 20.016 101.16 20.216 100.168 20.216C99.0481 20.216 98.0241 19.928 97.0961 19.352C96.1841 18.776 95.4561 17.968 94.9121 16.928C94.3841 15.872 94.1201 14.664 94.1201 13.304ZM104.584 13.352C104.584 12.536 104.424 11.84 104.104 11.264C103.784 10.672 103.352 10.224 102.808 9.92C102.264 9.6 101.68 9.44 101.056 9.44C100.432 9.44 99.8561 9.592 99.3281 9.896C98.8001 10.2 98.3681 10.648 98.0321 11.24C97.7121 11.816 97.5521 12.504 97.5521 13.304C97.5521 14.104 97.7121 14.808 98.0321 15.416C98.3681 16.008 98.8001 16.464 99.3281 16.784C99.8721 17.104 100.448 17.264 101.056 17.264C101.68 17.264 102.264 17.112 102.808 16.808C103.352 16.488 103.784 16.04 104.104 15.464C104.424 14.872 104.584 14.168 104.584 13.352ZM116.794 16.904L120.154 6.704H123.73L118.81 20H114.73L109.834 6.704H113.434L116.794 16.904ZM124.753 13.304C124.753 11.96 125.017 10.768 125.545 9.728C126.089 8.688 126.817 7.888 127.729 7.328C128.657 6.768 129.689 6.488 130.825 6.488C131.817 6.488 132.681 6.688 133.417 7.088C134.169 7.488 134.769 7.992 135.217 8.6V6.704H138.601V20H135.217V18.056C134.785 18.68 134.185 19.2 133.417 19.616C132.665 20.016 131.793 20.216 130.801 20.216C129.681 20.216 128.657 19.928 127.729 19.352C126.817 18.776 126.089 17.968 125.545 16.928C125.017 15.872 124.753 14.664 124.753 13.304ZM135.217 13.352C135.217 12.536 135.057 11.84 134.737 11.264C134.417 10.672 133.985 10.224 133.441 9.92C132.897 9.6 132.313 9.44 131.689 9.44C131.065 9.44 130.489 9.592 129.961 9.896C129.433 10.2 129.001 10.648 128.665 11.24C128.345 11.816 128.185 12.504 128.185 13.304C128.185 14.104 128.345 14.808 128.665 15.416C129.001 16.008 129.433 16.464 129.961 16.784C130.505 17.104 131.081 17.264 131.689 17.264C132.313 17.264 132.897 17.112 133.441 16.808C133.985 16.488 134.417 16.04 134.737 15.464C135.057 14.872 135.217 14.168 135.217 13.352ZM149.251 6.512C150.835 6.512 152.115 7.016 153.091 8.024C154.067 9.016 154.555 10.408 154.555 12.2V20H151.195V12.656C151.195 11.6 150.931 10.792 150.403 10.232C149.875 9.656 149.155 9.368 148.243 9.368C147.315 9.368 146.579 9.656 146.035 10.232C145.507 10.792 145.243 11.6 145.243 12.656V20H141.883V6.704H145.243V8.36C145.691 7.784 146.259 7.336 146.947 7.016C147.651 6.68 148.419 6.512 149.251 6.512ZM156.886 13.304C156.886 11.96 157.15 10.768 157.678 9.728C158.222 8.688 158.95 7.888 159.862 7.328C160.79 6.768 161.822 6.488 162.958 6.488C163.95 6.488 164.814 6.688 165.55 7.088C166.302 7.488 166.902 7.992 167.35 8.6V6.704H170.734V20H167.35V18.056C166.918 18.68 166.318 19.2 165.55 19.616C164.798 20.016 163.926 20.216 162.934 20.216C161.814 20.216 160.79 19.928 159.862 19.352C158.95 18.776 158.222 17.968 157.678 16.928C157.15 15.872 156.886 14.664 156.886 13.304ZM167.35 13.352C167.35 12.536 167.19 11.84 166.87 11.264C166.55 10.672 166.118 10.224 165.574 9.92C165.03 9.6 164.446 9.44 163.822 9.44C163.198 9.44 162.622 9.592 162.094 9.896C161.566 10.2 161.134 10.648 160.798 11.24C160.478 11.816 160.318 12.504 160.318 13.304C160.318 14.104 160.478 14.808 160.798 15.416C161.134 16.008 161.566 16.464 162.094 16.784C162.638 17.104 163.214 17.264 163.822 17.264C164.446 17.264 165.03 17.112 165.574 16.808C166.118 16.488 166.55 16.04 166.87 15.464C167.19 14.872 167.35 14.168 167.35 13.352ZM183.478 22.904H180.094V0.607999H183.478V22.904ZM205.075 8.432C205.075 9.328 204.859 10.168 204.427 10.952C204.011 11.736 203.347 12.368 202.435 12.848C201.539 13.328 200.403 13.568 199.027 13.568H196.219V20H192.859V3.248H199.027C200.323 3.248 201.427 3.472 202.339 3.92C203.251 4.368 203.931 4.984 204.379 5.768C204.843 6.552 205.075 7.44 205.075 8.432ZM198.883 10.856C199.811 10.856 200.499 10.648 200.947 10.232C201.395 9.8 201.619 9.2 201.619 8.432C201.619 6.8 200.707 5.984 198.883 5.984H196.219V10.856H198.883ZM210.821 8.768C211.253 8.064 211.813 7.512 212.501 7.112C213.205 6.712 214.005 6.512 214.901 6.512V10.04H214.013C212.957 10.04 212.157 10.288 211.613 10.784C211.085 11.28 210.821 12.144 210.821 13.376V20H207.461V6.704H210.821V8.768ZM223.068 20.216C221.788 20.216 220.636 19.936 219.612 19.376C218.588 18.8 217.78 17.992 217.188 16.952C216.612 15.912 216.324 14.712 216.324 13.352C216.324 11.992 216.62 10.792 217.212 9.752C217.82 8.712 218.644 7.912 219.684 7.352C220.724 6.776 221.884 6.488 223.164 6.488C224.444 6.488 225.604 6.776 226.644 7.352C227.684 7.912 228.5 8.712 229.092 9.752C229.7 10.792 230.004 11.992 230.004 13.352C230.004 14.712 229.692 15.912 229.068 16.952C228.46 17.992 227.628 18.8 226.572 19.376C225.532 19.936 224.364 20.216 223.068 20.216ZM223.068 17.288C223.676 17.288 224.244 17.144 224.772 16.856C225.316 16.552 225.748 16.104 226.068 15.512C226.388 14.92 226.548 14.2 226.548 13.352C226.548 12.088 226.212 11.12 225.54 10.448C224.884 9.76 224.076 9.416 223.116 9.416C222.156 9.416 221.348 9.76 220.692 10.448C220.052 11.12 219.732 12.088 219.732 13.352C219.732 14.616 220.044 15.592 220.668 16.28C221.308 16.952 222.108 17.288 223.068 17.288ZM237.677 6.488C238.669 6.488 239.541 6.688 240.293 7.088C241.045 7.472 241.637 7.976 242.069 8.6V6.704H245.453V20.096C245.453 21.328 245.205 22.424 244.709 23.384C244.213 24.36 243.469 25.128 242.477 25.688C241.485 26.264 240.285 26.552 238.877 26.552C236.989 26.552 235.437 26.112 234.221 25.232C233.021 24.352 232.341 23.152 232.181 21.632H235.517C235.693 22.24 236.069 22.72 236.645 23.072C237.237 23.44 237.949 23.624 238.781 23.624C239.757 23.624 240.549 23.328 241.157 22.736C241.765 22.16 242.069 21.28 242.069 20.096V18.032C241.637 18.656 241.037 19.176 240.269 19.592C239.517 20.008 238.653 20.216 237.677 20.216C236.557 20.216 235.533 19.928 234.605 19.352C233.677 18.776 232.941 17.968 232.396 16.928C231.868 15.872 231.604 14.664 231.604 13.304C231.604 11.96 231.868 10.768 232.396 9.728C232.941 8.688 233.669 7.888 234.581 7.328C235.509 6.768 236.541 6.488 237.677 6.488ZM242.069 13.352C242.069 12.536 241.909 11.84 241.589 11.264C241.269 10.672 240.837 10.224 240.293 9.92C239.749 9.6 239.165 9.44 238.541 9.44C237.917 9.44 237.341 9.592 236.812 9.896C236.285 10.2 235.853 10.648 235.517 11.24C235.197 11.816 235.037 12.504 235.037 13.304C235.037 14.104 235.197 14.808 235.517 15.416C235.853 16.008 236.285 16.464 236.812 16.784C237.357 17.104 237.933 17.264 238.541 17.264C239.165 17.264 239.749 17.112 240.293 16.808C240.837 16.488 241.269 16.04 241.589 15.464C241.909 14.872 242.069 14.168 242.069 13.352ZM252.094 8.768C252.526 8.064 253.086 7.512 253.774 7.112C254.478 6.712 255.278 6.512 256.174 6.512V10.04H255.286C254.23 10.04 253.43 10.288 252.886 10.784C252.358 11.28 252.094 12.144 252.094 13.376V20H248.734V6.704H252.094V8.768ZM257.573 13.304C257.573 11.96 257.837 10.768 258.365 9.728C258.909 8.688 259.637 7.888 260.549 7.328C261.477 6.768 262.509 6.488 263.645 6.488C264.637 6.488 265.501 6.688 266.237 7.088C266.989 7.488 267.589 7.992 268.037 8.6V6.704H271.421V20H268.037V18.056C267.605 18.68 267.005 19.2 266.237 19.616C265.485 20.016 264.613 20.216 263.621 20.216C262.501 20.216 261.477 19.928 260.549 19.352C259.637 18.776 258.909 17.968 258.365 16.928C257.837 15.872 257.573 14.664 257.573 13.304ZM268.037 13.352C268.037 12.536 267.877 11.84 267.557 11.264C267.237 10.672 266.805 10.224 266.261 9.92C265.717 9.6 265.133 9.44 264.509 9.44C263.885 9.44 263.309 9.592 262.781 9.896C262.253 10.2 261.821 10.648 261.485 11.24C261.165 11.816 261.005 12.504 261.005 13.304C261.005 14.104 261.165 14.808 261.485 15.416C261.821 16.008 262.253 16.464 262.781 16.784C263.325 17.104 263.901 17.264 264.509 17.264C265.133 17.264 265.717 17.112 266.261 16.808C266.805 16.488 267.237 16.04 267.557 15.464C267.877 14.872 268.037 14.168 268.037 13.352ZM291.215 6.512C292.847 6.512 294.159 7.016 295.151 8.024C296.159 9.016 296.663 10.408 296.663 12.2V20H293.303V12.656C293.303 11.616 293.039 10.824 292.511 10.28C291.983 9.72 291.263 9.44 290.351 9.44C289.439 9.44 288.711 9.72 288.167 10.28C287.639 10.824 287.375 11.616 287.375 12.656V20H284.015V12.656C284.015 11.616 283.751 10.824 283.223 10.28C282.695 9.72 281.975 9.44 281.063 9.44C280.135 9.44 279.399 9.72 278.855 10.28C278.327 10.824 278.063 11.616 278.063 12.656V20H274.703V6.704H278.063V8.312C278.495 7.752 279.047 7.312 279.719 6.992C280.407 6.672 281.159 6.512 281.975 6.512C283.015 6.512 283.943 6.736 284.759 7.184C285.575 7.616 286.207 8.24 286.655 9.056C287.087 8.288 287.711 7.672 288.527 7.208C289.359 6.744 290.255 6.512 291.215 6.512ZM298.987 13.304C298.987 11.96 299.251 10.768 299.779 9.728C300.323 8.688 301.051 7.888 301.963 7.328C302.891 6.768 303.923 6.488 305.059 6.488C306.051 6.488 306.915 6.688 307.651 7.088C308.403 7.488 309.003 7.992 309.451 8.6V6.704H312.835V20H309.451V18.056C309.019 18.68 308.419 19.2 307.651 19.616C306.899 20.016 306.027 20.216 305.035 20.216C303.915 20.216 302.891 19.928 301.963 19.352C301.051 18.776 300.323 17.968 299.779 16.928C299.251 15.872 298.987 14.664 298.987 13.304ZM309.451 13.352C309.451 12.536 309.291 11.84 308.971 11.264C308.651 10.672 308.219 10.224 307.675 9.92C307.131 9.6 306.547 9.44 305.923 9.44C305.299 9.44 304.723 9.592 304.195 9.896C303.667 10.2 303.235 10.648 302.899 11.24C302.579 11.816 302.419 12.504 302.419 13.304C302.419 14.104 302.579 14.808 302.899 15.416C303.235 16.008 303.667 16.464 304.195 16.784C304.739 17.104 305.315 17.264 305.923 17.264C306.547 17.264 307.131 17.112 307.675 16.808C308.219 16.488 308.651 16.04 308.971 15.464C309.291 14.872 309.451 14.168 309.451 13.352Z" fill="#D039BD"/>
</svg>
