<svg width="482" height="17" viewBox="0 0 482 17" fill="none" xmlns="http://www.w3.org/2000/svg">
<path d="M10.6456 2.04V4.3H6.92563V16H4.12563V4.3H0.405625V2.04H10.6456ZM17.6086 16.18C16.5419 16.18 15.5819 15.9467 14.7286 15.48C13.8753 15 13.2019 14.3267 12.7086 13.46C12.2286 12.5933 11.9886 11.5933 11.9886 10.46C11.9886 9.32667 12.2353 8.32667 12.7286 7.46C13.2353 6.59333 13.9219 5.92667 14.7886 5.46C15.6553 4.98 16.6219 4.74 17.6886 4.74C18.7553 4.74 19.7219 4.98 20.5886 5.46C21.4553 5.92667 22.1353 6.59333 22.6286 7.46C23.1353 8.32667 23.3886 9.32667 23.3886 10.46C23.3886 11.5933 23.1286 12.5933 22.6086 13.46C22.1019 14.3267 21.4086 15 20.5286 15.48C19.6619 15.9467 18.6886 16.18 17.6086 16.18ZM17.6086 13.74C18.1153 13.74 18.5886 13.62 19.0286 13.38C19.4819 13.1267 19.8419 12.7533 20.1086 12.26C20.3753 11.7667 20.5086 11.1667 20.5086 10.46C20.5086 9.40667 20.2286 8.6 19.6686 8.04C19.1219 7.46667 18.4486 7.18 17.6486 7.18C16.8486 7.18 16.1753 7.46667 15.6286 8.04C15.0953 8.6 14.8286 9.40667 14.8286 10.46C14.8286 11.5133 15.0886 12.3267 15.6086 12.9C16.1419 13.46 16.8086 13.74 17.6086 13.74ZM24.7225 10.42C24.7225 9.3 24.9425 8.30667 25.3825 7.44C25.8358 6.57333 26.4492 5.90667 27.2225 5.44C27.9958 4.97333 28.8558 4.74 29.8025 4.74C30.5225 4.74 31.2092 4.9 31.8625 5.22C32.5158 5.52667 33.0358 5.94 33.4225 6.46V1.2H36.2625V16H33.4225V14.36C33.0758 14.9067 32.5892 15.3467 31.9625 15.68C31.3358 16.0133 30.6092 16.18 29.7825 16.18C28.8492 16.18 27.9958 15.94 27.2225 15.46C26.4492 14.98 25.8358 14.3067 25.3825 13.44C24.9425 12.56 24.7225 11.5533 24.7225 10.42ZM33.4425 10.46C33.4425 9.78 33.3092 9.2 33.0425 8.72C32.7758 8.22667 32.4158 7.85333 31.9625 7.6C31.5092 7.33333 31.0225 7.2 30.5025 7.2C29.9825 7.2 29.5025 7.32667 29.0625 7.58C28.6225 7.83333 28.2625 8.20667 27.9825 8.7C27.7158 9.18 27.5825 9.75333 27.5825 10.42C27.5825 11.0867 27.7158 11.6733 27.9825 12.18C28.2625 12.6733 28.6225 13.0533 29.0625 13.32C29.5158 13.5867 29.9958 13.72 30.5025 13.72C31.0225 13.72 31.5092 13.5933 31.9625 13.34C32.4158 13.0733 32.7758 12.7 33.0425 12.22C33.3092 11.7267 33.4425 11.14 33.4425 10.46ZM43.9172 16.18C42.8505 16.18 41.8905 15.9467 41.0372 15.48C40.1839 15 39.5105 14.3267 39.0172 13.46C38.5372 12.5933 38.2972 11.5933 38.2972 10.46C38.2972 9.32667 38.5439 8.32667 39.0372 7.46C39.5439 6.59333 40.2305 5.92667 41.0972 5.46C41.9639 4.98 42.9305 4.74 43.9972 4.74C45.0639 4.74 46.0305 4.98 46.8972 5.46C47.7639 5.92667 48.4439 6.59333 48.9372 7.46C49.4439 8.32667 49.6972 9.32667 49.6972 10.46C49.6972 11.5933 49.4372 12.5933 48.9172 13.46C48.4105 14.3267 47.7172 15 46.8372 15.48C45.9705 15.9467 44.9972 16.18 43.9172 16.18ZM43.9172 13.74C44.4239 13.74 44.8972 13.62 45.3372 13.38C45.7905 13.1267 46.1505 12.7533 46.4172 12.26C46.6839 11.7667 46.8172 11.1667 46.8172 10.46C46.8172 9.40667 46.5372 8.6 45.9772 8.04C45.4305 7.46667 44.7572 7.18 43.9572 7.18C43.1572 7.18 42.4839 7.46667 41.9372 8.04C41.4039 8.6 41.1372 9.40667 41.1372 10.46C41.1372 11.5133 41.3972 12.3267 41.9172 12.9C42.4505 13.46 43.1172 13.74 43.9172 13.74ZM55.9911 16.18C55.0844 16.18 54.2711 16.02 53.5511 15.7C52.8311 15.3667 52.2578 14.92 51.8311 14.36C51.4178 13.8 51.1911 13.18 51.1511 12.5H53.9711C54.0244 12.9267 54.2311 13.28 54.5911 13.56C54.9644 13.84 55.4244 13.98 55.9711 13.98C56.5044 13.98 56.9178 13.8733 57.2111 13.66C57.5178 13.4467 57.6711 13.1733 57.6711 12.84C57.6711 12.48 57.4844 12.2133 57.1111 12.04C56.7511 11.8533 56.1711 11.6533 55.3711 11.44C54.5444 11.24 53.8644 11.0333 53.3311 10.82C52.8111 10.6067 52.3578 10.28 51.9711 9.84C51.5978 9.4 51.4111 8.80667 51.4111 8.06C51.4111 7.44667 51.5844 6.88667 51.9311 6.38C52.2911 5.87333 52.7978 5.47333 53.4511 5.18C54.1178 4.88667 54.8978 4.74 55.7911 4.74C57.1111 4.74 58.1644 5.07333 58.9511 5.74C59.7378 6.39333 60.1711 7.28 60.2511 8.4H57.5711C57.5311 7.96 57.3444 7.61333 57.0111 7.36C56.6911 7.09333 56.2578 6.96 55.7111 6.96C55.2044 6.96 54.8111 7.05333 54.5311 7.24C54.2644 7.42667 54.1311 7.68667 54.1311 8.02C54.1311 8.39333 54.3178 8.68 54.6911 8.88C55.0644 9.06667 55.6444 9.26 56.4311 9.46C57.2311 9.66 57.8911 9.86667 58.4111 10.08C58.9311 10.2933 59.3778 10.6267 59.7511 11.08C60.1378 11.52 60.3378 12.1067 60.3511 12.84C60.3511 13.48 60.1711 14.0533 59.8111 14.56C59.4644 15.0667 58.9578 15.4667 58.2911 15.76C57.6378 16.04 56.8711 16.18 55.9911 16.18ZM72.3352 16.18C71.2685 16.18 70.3085 15.9467 69.4552 15.48C68.6018 15 67.9285 14.3267 67.4352 13.46C66.9552 12.5933 66.7152 11.5933 66.7152 10.46C66.7152 9.32667 66.9618 8.32667 67.4552 7.46C67.9618 6.59333 68.6485 5.92667 69.5152 5.46C70.3818 4.98 71.3485 4.74 72.4152 4.74C73.4818 4.74 74.4485 4.98 75.3152 5.46C76.1818 5.92667 76.8618 6.59333 77.3552 7.46C77.8618 8.32667 78.1152 9.32667 78.1152 10.46C78.1152 11.5933 77.8552 12.5933 77.3352 13.46C76.8285 14.3267 76.1352 15 75.2552 15.48C74.3885 15.9467 73.4152 16.18 72.3352 16.18ZM72.3352 13.74C72.8418 13.74 73.3152 13.62 73.7552 13.38C74.2085 13.1267 74.5685 12.7533 74.8352 12.26C75.1018 11.7667 75.2352 11.1667 75.2352 10.46C75.2352 9.40667 74.9552 8.6 74.3952 8.04C73.8485 7.46667 73.1752 7.18 72.3752 7.18C71.5752 7.18 70.9018 7.46667 70.3552 8.04C69.8218 8.6 69.5552 9.40667 69.5552 10.46C69.5552 11.5133 69.8152 12.3267 70.3352 12.9C70.8685 13.46 71.5352 13.74 72.3352 13.74ZM84.4091 16.18C83.5024 16.18 82.6891 16.02 81.9691 15.7C81.2491 15.3667 80.6757 14.92 80.2491 14.36C79.8357 13.8 79.6091 13.18 79.5691 12.5H82.3891C82.4424 12.9267 82.6491 13.28 83.0091 13.56C83.3824 13.84 83.8424 13.98 84.3891 13.98C84.9224 13.98 85.3357 13.8733 85.6291 13.66C85.9357 13.4467 86.0891 13.1733 86.0891 12.84C86.0891 12.48 85.9024 12.2133 85.5291 12.04C85.1691 11.8533 84.5891 11.6533 83.7891 11.44C82.9624 11.24 82.2824 11.0333 81.7491 10.82C81.2291 10.6067 80.7757 10.28 80.3891 9.84C80.0157 9.4 79.8291 8.80667 79.8291 8.06C79.8291 7.44667 80.0024 6.88667 80.3491 6.38C80.7091 5.87333 81.2157 5.47333 81.8691 5.18C82.5357 4.88667 83.3157 4.74 84.2091 4.74C85.5291 4.74 86.5824 5.07333 87.3691 5.74C88.1557 6.39333 88.5891 7.28 88.6691 8.4H85.9891C85.9491 7.96 85.7624 7.61333 85.4291 7.36C85.1091 7.09333 84.6757 6.96 84.1291 6.96C83.6224 6.96 83.2291 7.05333 82.9491 7.24C82.6824 7.42667 82.5491 7.68667 82.5491 8.02C82.5491 8.39333 82.7357 8.68 83.1091 8.88C83.4824 9.06667 84.0624 9.26 84.8491 9.46C85.6491 9.66 86.3091 9.86667 86.8291 10.08C87.3491 10.2933 87.7957 10.6267 88.1691 11.08C88.5557 11.52 88.7557 12.1067 88.7691 12.84C88.7691 13.48 88.5891 14.0533 88.2291 14.56C87.8824 15.0667 87.3757 15.4667 86.7091 15.76C86.0557 16.04 85.2891 16.18 84.4091 16.18ZM95.1131 10.42C95.1131 9.3 95.3331 8.30667 95.7731 7.44C96.2265 6.57333 96.8398 5.90667 97.6131 5.44C98.3865 4.97333 99.2465 4.74 100.193 4.74C100.913 4.74 101.6 4.9 102.253 5.22C102.906 5.52667 103.426 5.94 103.813 6.46V1.2H106.653V16H103.813V14.36C103.466 14.9067 102.98 15.3467 102.353 15.68C101.726 16.0133 101 16.18 100.173 16.18C99.2398 16.18 98.3865 15.94 97.6131 15.46C96.8398 14.98 96.2265 14.3067 95.7731 13.44C95.3331 12.56 95.1131 11.5533 95.1131 10.42ZM103.833 10.46C103.833 9.78 103.7 9.2 103.433 8.72C103.166 8.22667 102.806 7.85333 102.353 7.6C101.9 7.33333 101.413 7.2 100.893 7.2C100.373 7.2 99.8931 7.32667 99.4531 7.58C99.0131 7.83333 98.6531 8.20667 98.3731 8.7C98.1065 9.18 97.9731 9.75333 97.9731 10.42C97.9731 11.0867 98.1065 11.6733 98.3731 12.18C98.6531 12.6733 99.0131 13.0533 99.4531 13.32C99.9065 13.5867 100.386 13.72 100.893 13.72C101.413 13.72 101.9 13.5933 102.353 13.34C102.806 13.0733 103.166 12.7 103.433 12.22C103.7 11.7267 103.833 11.14 103.833 10.46ZM110.808 3.6C110.314 3.6 109.901 3.44667 109.568 3.14C109.248 2.82 109.088 2.42667 109.088 1.96C109.088 1.49333 109.248 1.10667 109.568 0.799999C109.901 0.479999 110.314 0.319999 110.808 0.319999C111.301 0.319999 111.708 0.479999 112.028 0.799999C112.361 1.10667 112.528 1.49333 112.528 1.96C112.528 2.42667 112.361 2.82 112.028 3.14C111.708 3.44667 111.301 3.6 110.808 3.6ZM112.188 4.92V16H109.388V4.92H112.188ZM117.754 6.64C118.114 6.05333 118.581 5.59333 119.154 5.26C119.741 4.92667 120.408 4.76 121.154 4.76V7.7H120.414C119.534 7.7 118.868 7.90667 118.414 8.32C117.974 8.73333 117.754 9.45333 117.754 10.48V16H114.954V4.92H117.754V6.64ZM133.34 10.22C133.34 10.62 133.313 10.98 133.26 11.3H125.16C125.227 12.1 125.507 12.7267 126 13.18C126.493 13.6333 127.1 13.86 127.82 13.86C128.86 13.86 129.6 13.4133 130.04 12.52H133.06C132.74 13.5867 132.127 14.4667 131.22 15.16C130.313 15.84 129.2 16.18 127.88 16.18C126.813 16.18 125.853 15.9467 125 15.48C124.16 15 123.5 14.3267 123.02 13.46C122.553 12.5933 122.32 11.5933 122.32 10.46C122.32 9.31333 122.553 8.30667 123.02 7.44C123.487 6.57333 124.14 5.90667 124.98 5.44C125.82 4.97333 126.787 4.74 127.88 4.74C128.933 4.74 129.873 4.96667 130.7 5.42C131.54 5.87333 132.187 6.52 132.64 7.36C133.107 8.18667 133.34 9.14 133.34 10.22ZM130.44 9.42C130.427 8.7 130.167 8.12667 129.66 7.7C129.153 7.26 128.533 7.04 127.8 7.04C127.107 7.04 126.52 7.25333 126.04 7.68C125.573 8.09333 125.287 8.67333 125.18 9.42H130.44ZM136.804 3.6C136.311 3.6 135.897 3.44667 135.564 3.14C135.244 2.82 135.084 2.42667 135.084 1.96C135.084 1.49333 135.244 1.10667 135.564 0.799999C135.897 0.479999 136.311 0.319999 136.804 0.319999C137.297 0.319999 137.704 0.479999 138.024 0.799999C138.357 1.10667 138.524 1.49333 138.524 1.96C138.524 2.42667 138.357 2.82 138.024 3.14C137.704 3.44667 137.297 3.6 136.804 3.6ZM138.184 4.92V16H135.384V4.92H138.184ZM144.21 7.22V12.58C144.21 12.9533 144.297 13.2267 144.47 13.4C144.657 13.56 144.964 13.64 145.39 13.64H146.69V16H144.93C142.57 16 141.39 14.8533 141.39 12.56V7.22H140.07V4.92H141.39V2.18H144.21V4.92H146.69V7.22H144.21ZM153.624 16.18C152.558 16.18 151.598 15.9467 150.744 15.48C149.891 15 149.218 14.3267 148.724 13.46C148.244 12.5933 148.004 11.5933 148.004 10.46C148.004 9.32667 148.251 8.32667 148.744 7.46C149.251 6.59333 149.938 5.92667 150.804 5.46C151.671 4.98 152.638 4.74 153.704 4.74C154.771 4.74 155.738 4.98 156.604 5.46C157.471 5.92667 158.151 6.59333 158.644 7.46C159.151 8.32667 159.404 9.32667 159.404 10.46C159.404 11.5933 159.144 12.5933 158.624 13.46C158.118 14.3267 157.424 15 156.544 15.48C155.678 15.9467 154.704 16.18 153.624 16.18ZM153.624 13.74C154.131 13.74 154.604 13.62 155.044 13.38C155.498 13.1267 155.858 12.7533 156.124 12.26C156.391 11.7667 156.524 11.1667 156.524 10.46C156.524 9.40667 156.244 8.6 155.684 8.04C155.138 7.46667 154.464 7.18 153.664 7.18C152.864 7.18 152.191 7.46667 151.644 8.04C151.111 8.6 150.844 9.40667 150.844 10.46C150.844 11.5133 151.104 12.3267 151.624 12.9C152.158 13.46 152.824 13.74 153.624 13.74ZM165.698 16.18C164.791 16.18 163.978 16.02 163.258 15.7C162.538 15.3667 161.965 14.92 161.538 14.36C161.125 13.8 160.898 13.18 160.858 12.5H163.678C163.731 12.9267 163.938 13.28 164.298 13.56C164.671 13.84 165.131 13.98 165.678 13.98C166.211 13.98 166.625 13.8733 166.918 13.66C167.225 13.4467 167.378 13.1733 167.378 12.84C167.378 12.48 167.191 12.2133 166.818 12.04C166.458 11.8533 165.878 11.6533 165.078 11.44C164.251 11.24 163.571 11.0333 163.038 10.82C162.518 10.6067 162.065 10.28 161.678 9.84C161.305 9.4 161.118 8.80667 161.118 8.06C161.118 7.44667 161.291 6.88667 161.638 6.38C161.998 5.87333 162.505 5.47333 163.158 5.18C163.825 4.88667 164.605 4.74 165.498 4.74C166.818 4.74 167.871 5.07333 168.658 5.74C169.445 6.39333 169.878 7.28 169.958 8.4H167.278C167.238 7.96 167.051 7.61333 166.718 7.36C166.398 7.09333 165.965 6.96 165.418 6.96C164.911 6.96 164.518 7.05333 164.238 7.24C163.971 7.42667 163.838 7.68667 163.838 8.02C163.838 8.39333 164.025 8.68 164.398 8.88C164.771 9.06667 165.351 9.26 166.138 9.46C166.938 9.66 167.598 9.86667 168.118 10.08C168.638 10.2933 169.085 10.6267 169.458 11.08C169.845 11.52 170.045 12.1067 170.058 12.84C170.058 13.48 169.878 14.0533 169.518 14.56C169.171 15.0667 168.665 15.4667 167.998 15.76C167.345 16.04 166.578 16.18 165.698 16.18ZM179.922 6.64C180.282 6.05333 180.749 5.59333 181.322 5.26C181.909 4.92667 182.576 4.76 183.322 4.76V7.7H182.582C181.702 7.7 181.036 7.90667 180.582 8.32C180.142 8.73333 179.922 9.45333 179.922 10.48V16H177.122V4.92H179.922V6.64ZM195.508 10.22C195.508 10.62 195.481 10.98 195.428 11.3H187.328C187.395 12.1 187.675 12.7267 188.168 13.18C188.661 13.6333 189.268 13.86 189.988 13.86C191.028 13.86 191.768 13.4133 192.208 12.52H195.228C194.908 13.5867 194.295 14.4667 193.388 15.16C192.481 15.84 191.368 16.18 190.048 16.18C188.981 16.18 188.021 15.9467 187.168 15.48C186.328 15 185.668 14.3267 185.188 13.46C184.721 12.5933 184.488 11.5933 184.488 10.46C184.488 9.31333 184.721 8.30667 185.188 7.44C185.655 6.57333 186.308 5.90667 187.148 5.44C187.988 4.97333 188.955 4.74 190.048 4.74C191.101 4.74 192.041 4.96667 192.868 5.42C193.708 5.87333 194.355 6.52 194.808 7.36C195.275 8.18667 195.508 9.14 195.508 10.22ZM192.608 9.42C192.595 8.7 192.335 8.12667 191.828 7.7C191.321 7.26 190.701 7.04 189.968 7.04C189.275 7.04 188.688 7.25333 188.208 7.68C187.741 8.09333 187.455 8.67333 187.348 9.42H192.608ZM201.792 16.18C200.885 16.18 200.072 16.02 199.352 15.7C198.632 15.3667 198.059 14.92 197.632 14.36C197.219 13.8 196.992 13.18 196.952 12.5H199.772C199.825 12.9267 200.032 13.28 200.392 13.56C200.765 13.84 201.225 13.98 201.772 13.98C202.305 13.98 202.719 13.8733 203.012 13.66C203.319 13.4467 203.472 13.1733 203.472 12.84C203.472 12.48 203.285 12.2133 202.912 12.04C202.552 11.8533 201.972 11.6533 201.172 11.44C200.345 11.24 199.665 11.0333 199.132 10.82C198.612 10.6067 198.159 10.28 197.772 9.84C197.399 9.4 197.212 8.80667 197.212 8.06C197.212 7.44667 197.385 6.88667 197.732 6.38C198.092 5.87333 198.599 5.47333 199.252 5.18C199.919 4.88667 200.699 4.74 201.592 4.74C202.912 4.74 203.965 5.07333 204.752 5.74C205.539 6.39333 205.972 7.28 206.052 8.4H203.372C203.332 7.96 203.145 7.61333 202.812 7.36C202.492 7.09333 202.059 6.96 201.512 6.96C201.005 6.96 200.612 7.05333 200.332 7.24C200.065 7.42667 199.932 7.68667 199.932 8.02C199.932 8.39333 200.119 8.68 200.492 8.88C200.865 9.06667 201.445 9.26 202.232 9.46C203.032 9.66 203.692 9.86667 204.212 10.08C204.732 10.2933 205.179 10.6267 205.552 11.08C205.939 11.52 206.139 12.1067 206.152 12.84C206.152 13.48 205.972 14.0533 205.612 14.56C205.265 15.0667 204.759 15.4667 204.092 15.76C203.439 16.04 202.672 16.18 201.792 16.18ZM218.75 10.22C218.75 10.62 218.724 10.98 218.67 11.3H210.57C210.637 12.1 210.917 12.7267 211.41 13.18C211.904 13.6333 212.51 13.86 213.23 13.86C214.27 13.86 215.01 13.4133 215.45 12.52H218.47C218.15 13.5867 217.537 14.4667 216.63 15.16C215.724 15.84 214.61 16.18 213.29 16.18C212.224 16.18 211.264 15.9467 210.41 15.48C209.57 15 208.91 14.3267 208.43 13.46C207.964 12.5933 207.73 11.5933 207.73 10.46C207.73 9.31333 207.964 8.30667 208.43 7.44C208.897 6.57333 209.55 5.90667 210.39 5.44C211.23 4.97333 212.197 4.74 213.29 4.74C214.344 4.74 215.284 4.96667 216.11 5.42C216.95 5.87333 217.597 6.52 218.05 7.36C218.517 8.18667 218.75 9.14 218.75 10.22ZM215.85 9.42C215.837 8.7 215.577 8.12667 215.07 7.7C214.564 7.26 213.944 7.04 213.21 7.04C212.517 7.04 211.93 7.25333 211.45 7.68C210.984 8.09333 210.697 8.67333 210.59 9.42H215.85ZM223.594 6.64C223.954 6.05333 224.421 5.59333 224.994 5.26C225.581 4.92667 226.247 4.76 226.994 4.76V7.7H226.254C225.374 7.7 224.707 7.90667 224.254 8.32C223.814 8.73333 223.594 9.45333 223.594 10.48V16H220.794V4.92H223.594V6.64ZM233.5 13.42L236.3 4.92H239.28L235.18 16H231.78L227.7 4.92H230.7L233.5 13.42ZM240.133 10.42C240.133 9.3 240.353 8.30667 240.793 7.44C241.246 6.57333 241.853 5.90667 242.613 5.44C243.386 4.97333 244.246 4.74 245.193 4.74C246.019 4.74 246.739 4.90667 247.353 5.24C247.979 5.57333 248.479 5.99333 248.853 6.5V4.92H251.673V16H248.853V14.38C248.493 14.9 247.993 15.3333 247.353 15.68C246.726 16.0133 245.999 16.18 245.173 16.18C244.239 16.18 243.386 15.94 242.613 15.46C241.853 14.98 241.246 14.3067 240.793 13.44C240.353 12.56 240.133 11.5533 240.133 10.42ZM248.853 10.46C248.853 9.78 248.719 9.2 248.453 8.72C248.186 8.22667 247.826 7.85333 247.373 7.6C246.919 7.33333 246.433 7.2 245.913 7.2C245.393 7.2 244.913 7.32667 244.473 7.58C244.033 7.83333 243.673 8.20667 243.393 8.7C243.126 9.18 242.993 9.75333 242.993 10.42C242.993 11.0867 243.126 11.6733 243.393 12.18C243.673 12.6733 244.033 13.0533 244.473 13.32C244.926 13.5867 245.406 13.72 245.913 13.72C246.433 13.72 246.919 13.5933 247.373 13.34C247.826 13.0733 248.186 12.7 248.453 12.22C248.719 11.7267 248.853 11.14 248.853 10.46ZM253.687 10.42C253.687 9.3 253.907 8.30667 254.347 7.44C254.801 6.57333 255.414 5.90667 256.187 5.44C256.961 4.97333 257.821 4.74 258.767 4.74C259.487 4.74 260.174 4.9 260.827 5.22C261.481 5.52667 262.001 5.94 262.387 6.46V1.2H265.227V16H262.387V14.36C262.041 14.9067 261.554 15.3467 260.927 15.68C260.301 16.0133 259.574 16.18 258.747 16.18C257.814 16.18 256.961 15.94 256.187 15.46C255.414 14.98 254.801 14.3067 254.347 13.44C253.907 12.56 253.687 11.5533 253.687 10.42ZM262.407 10.46C262.407 9.78 262.274 9.2 262.007 8.72C261.741 8.22667 261.381 7.85333 260.927 7.6C260.474 7.33333 259.987 7.2 259.467 7.2C258.947 7.2 258.467 7.32667 258.027 7.58C257.587 7.83333 257.227 8.20667 256.947 8.7C256.681 9.18 256.547 9.75333 256.547 10.42C256.547 11.0867 256.681 11.6733 256.947 12.18C257.227 12.6733 257.587 13.0533 258.027 13.32C258.481 13.5867 258.961 13.72 259.467 13.72C259.987 13.72 260.474 13.5933 260.927 13.34C261.381 13.0733 261.741 12.7 262.007 12.22C262.274 11.7267 262.407 11.14 262.407 10.46ZM272.882 16.18C271.815 16.18 270.855 15.9467 270.002 15.48C269.149 15 268.475 14.3267 267.982 13.46C267.502 12.5933 267.262 11.5933 267.262 10.46C267.262 9.32667 267.509 8.32667 268.002 7.46C268.509 6.59333 269.195 5.92667 270.062 5.46C270.929 4.98 271.895 4.74 272.962 4.74C274.029 4.74 274.995 4.98 275.862 5.46C276.729 5.92667 277.409 6.59333 277.902 7.46C278.409 8.32667 278.662 9.32667 278.662 10.46C278.662 11.5933 278.402 12.5933 277.882 13.46C277.375 14.3267 276.682 15 275.802 15.48C274.935 15.9467 273.962 16.18 272.882 16.18ZM272.882 13.74C273.389 13.74 273.862 13.62 274.302 13.38C274.755 13.1267 275.115 12.7533 275.382 12.26C275.649 11.7667 275.782 11.1667 275.782 10.46C275.782 9.40667 275.502 8.6 274.942 8.04C274.395 7.46667 273.722 7.18 272.922 7.18C272.122 7.18 271.449 7.46667 270.902 8.04C270.369 8.6 270.102 9.40667 270.102 10.46C270.102 11.5133 270.362 12.3267 270.882 12.9C271.415 13.46 272.082 13.74 272.882 13.74ZM284.956 16.18C284.049 16.18 283.236 16.02 282.516 15.7C281.796 15.3667 281.223 14.92 280.796 14.36C280.383 13.8 280.156 13.18 280.116 12.5H282.936C282.989 12.9267 283.196 13.28 283.556 13.56C283.929 13.84 284.389 13.98 284.936 13.98C285.469 13.98 285.883 13.8733 286.176 13.66C286.483 13.4467 286.636 13.1733 286.636 12.84C286.636 12.48 286.449 12.2133 286.076 12.04C285.716 11.8533 285.136 11.6533 284.336 11.44C283.509 11.24 282.829 11.0333 282.296 10.82C281.776 10.6067 281.323 10.28 280.936 9.84C280.563 9.4 280.376 8.80667 280.376 8.06C280.376 7.44667 280.549 6.88667 280.896 6.38C281.256 5.87333 281.763 5.47333 282.416 5.18C283.083 4.88667 283.863 4.74 284.756 4.74C286.076 4.74 287.129 5.07333 287.916 5.74C288.703 6.39333 289.136 7.28 289.216 8.4H286.536C286.496 7.96 286.309 7.61333 285.976 7.36C285.656 7.09333 285.223 6.96 284.676 6.96C284.169 6.96 283.776 7.05333 283.496 7.24C283.229 7.42667 283.096 7.68667 283.096 8.02C283.096 8.39333 283.283 8.68 283.656 8.88C284.029 9.06667 284.609 9.26 285.396 9.46C286.196 9.66 286.856 9.86667 287.376 10.08C287.896 10.2933 288.343 10.6267 288.716 11.08C289.103 11.52 289.303 12.1067 289.316 12.84C289.316 13.48 289.136 14.0533 288.776 14.56C288.429 15.0667 287.923 15.4667 287.256 15.76C286.603 16.04 285.836 16.18 284.956 16.18ZM295.66 10.42C295.66 9.3 295.88 8.30667 296.32 7.44C296.773 6.57333 297.38 5.90667 298.14 5.44C298.913 4.97333 299.773 4.74 300.72 4.74C301.547 4.74 302.267 4.90667 302.88 5.24C303.507 5.57333 304.007 5.99333 304.38 6.5V4.92H307.2V16H304.38V14.38C304.02 14.9 303.52 15.3333 302.88 15.68C302.253 16.0133 301.527 16.18 300.7 16.18C299.767 16.18 298.913 15.94 298.14 15.46C297.38 14.98 296.773 14.3067 296.32 13.44C295.88 12.56 295.66 11.5533 295.66 10.42ZM304.38 10.46C304.38 9.78 304.247 9.2 303.98 8.72C303.713 8.22667 303.353 7.85333 302.9 7.6C302.447 7.33333 301.96 7.2 301.44 7.2C300.92 7.2 300.44 7.32667 300 7.58C299.56 7.83333 299.2 8.20667 298.92 8.7C298.653 9.18 298.52 9.75333 298.52 10.42C298.52 11.0867 298.653 11.6733 298.92 12.18C299.2 12.6733 299.56 13.0533 300 13.32C300.453 13.5867 300.933 13.72 301.44 13.72C301.96 13.72 302.447 13.5933 302.9 13.34C303.353 13.0733 303.713 12.7 303.98 12.22C304.247 11.7267 304.38 11.14 304.38 10.46ZM325 10.22C325 10.62 324.974 10.98 324.92 11.3H316.82C316.887 12.1 317.167 12.7267 317.66 13.18C318.154 13.6333 318.76 13.86 319.48 13.86C320.52 13.86 321.26 13.4133 321.7 12.52H324.72C324.4 13.5867 323.787 14.4667 322.88 15.16C321.974 15.84 320.86 16.18 319.54 16.18C318.474 16.18 317.514 15.9467 316.66 15.48C315.82 15 315.16 14.3267 314.68 13.46C314.214 12.5933 313.98 11.5933 313.98 10.46C313.98 9.31333 314.214 8.30667 314.68 7.44C315.147 6.57333 315.8 5.90667 316.64 5.44C317.48 4.97333 318.447 4.74 319.54 4.74C320.594 4.74 321.534 4.96667 322.36 5.42C323.2 5.87333 323.847 6.52 324.3 7.36C324.767 8.18667 325 9.14 325 10.22ZM322.1 9.42C322.087 8.7 321.827 8.12667 321.32 7.7C320.814 7.26 320.194 7.04 319.46 7.04C318.767 7.04 318.18 7.25333 317.7 7.68C317.234 8.09333 316.947 8.67333 316.84 9.42H322.1ZM331.284 16.18C330.377 16.18 329.564 16.02 328.844 15.7C328.124 15.3667 327.551 14.92 327.124 14.36C326.711 13.8 326.484 13.18 326.444 12.5H329.264C329.317 12.9267 329.524 13.28 329.884 13.56C330.257 13.84 330.717 13.98 331.264 13.98C331.797 13.98 332.211 13.8733 332.504 13.66C332.811 13.4467 332.964 13.1733 332.964 12.84C332.964 12.48 332.777 12.2133 332.404 12.04C332.044 11.8533 331.464 11.6533 330.664 11.44C329.837 11.24 329.157 11.0333 328.624 10.82C328.104 10.6067 327.651 10.28 327.264 9.84C326.891 9.4 326.704 8.80667 326.704 8.06C326.704 7.44667 326.877 6.88667 327.224 6.38C327.584 5.87333 328.091 5.47333 328.744 5.18C329.411 4.88667 330.191 4.74 331.084 4.74C332.404 4.74 333.457 5.07333 334.244 5.74C335.031 6.39333 335.464 7.28 335.544 8.4H332.864C332.824 7.96 332.637 7.61333 332.304 7.36C331.984 7.09333 331.551 6.96 331.004 6.96C330.497 6.96 330.104 7.05333 329.824 7.24C329.557 7.42667 329.424 7.68667 329.424 8.02C329.424 8.39333 329.611 8.68 329.984 8.88C330.357 9.06667 330.937 9.26 331.724 9.46C332.524 9.66 333.184 9.86667 333.704 10.08C334.224 10.2933 334.671 10.6267 335.044 11.08C335.431 11.52 335.631 12.1067 335.644 12.84C335.644 13.48 335.464 14.0533 335.104 14.56C334.757 15.0667 334.251 15.4667 333.584 15.76C332.931 16.04 332.164 16.18 331.284 16.18ZM341.203 7.22V12.58C341.203 12.9533 341.289 13.2267 341.463 13.4C341.649 13.56 341.956 13.64 342.383 13.64H343.683V16H341.923C339.563 16 338.383 14.8533 338.383 12.56V7.22H337.063V4.92H338.383V2.18H341.203V4.92H343.683V7.22H341.203ZM355.996 10.22C355.996 10.62 355.97 10.98 355.916 11.3H347.816C347.883 12.1 348.163 12.7267 348.656 13.18C349.15 13.6333 349.756 13.86 350.476 13.86C351.516 13.86 352.256 13.4133 352.696 12.52H355.716C355.396 13.5867 354.783 14.4667 353.876 15.16C352.97 15.84 351.856 16.18 350.536 16.18C349.47 16.18 348.51 15.9467 347.656 15.48C346.816 15 346.156 14.3267 345.676 13.46C345.21 12.5933 344.976 11.5933 344.976 10.46C344.976 9.31333 345.21 8.30667 345.676 7.44C346.143 6.57333 346.796 5.90667 347.636 5.44C348.476 4.97333 349.443 4.74 350.536 4.74C351.59 4.74 352.53 4.96667 353.356 5.42C354.196 5.87333 354.843 6.52 355.296 7.36C355.763 8.18667 355.996 9.14 355.996 10.22ZM353.096 9.42C353.083 8.7 352.823 8.12667 352.316 7.7C351.81 7.26 351.19 7.04 350.456 7.04C349.763 7.04 349.176 7.25333 348.696 7.68C348.23 8.09333 347.943 8.67333 347.836 9.42H353.096ZM367.046 16.18C366.139 16.18 365.326 16.02 364.606 15.7C363.886 15.3667 363.312 14.92 362.886 14.36C362.472 13.8 362.246 13.18 362.206 12.5H365.026C365.079 12.9267 365.286 13.28 365.646 13.56C366.019 13.84 366.479 13.98 367.026 13.98C367.559 13.98 367.972 13.8733 368.266 13.66C368.572 13.4467 368.726 13.1733 368.726 12.84C368.726 12.48 368.539 12.2133 368.166 12.04C367.806 11.8533 367.226 11.6533 366.426 11.44C365.599 11.24 364.919 11.0333 364.386 10.82C363.866 10.6067 363.412 10.28 363.026 9.84C362.652 9.4 362.466 8.80667 362.466 8.06C362.466 7.44667 362.639 6.88667 362.986 6.38C363.346 5.87333 363.852 5.47333 364.506 5.18C365.172 4.88667 365.952 4.74 366.846 4.74C368.166 4.74 369.219 5.07333 370.006 5.74C370.792 6.39333 371.226 7.28 371.306 8.4H368.626C368.586 7.96 368.399 7.61333 368.066 7.36C367.746 7.09333 367.312 6.96 366.766 6.96C366.259 6.96 365.866 7.05333 365.586 7.24C365.319 7.42667 365.186 7.68667 365.186 8.02C365.186 8.39333 365.372 8.68 365.746 8.88C366.119 9.06667 366.699 9.26 367.486 9.46C368.286 9.66 368.946 9.86667 369.466 10.08C369.986 10.2933 370.432 10.6267 370.806 11.08C371.192 11.52 371.392 12.1067 371.406 12.84C371.406 13.48 371.226 14.0533 370.866 14.56C370.519 15.0667 370.012 15.4667 369.346 15.76C368.692 16.04 367.926 16.18 367.046 16.18ZM375.124 3.6C374.631 3.6 374.218 3.44667 373.884 3.14C373.564 2.82 373.404 2.42667 373.404 1.96C373.404 1.49333 373.564 1.10667 373.884 0.799999C374.218 0.479999 374.631 0.319999 375.124 0.319999C375.618 0.319999 376.024 0.479999 376.344 0.799999C376.678 1.10667 376.844 1.49333 376.844 1.96C376.844 2.42667 376.678 2.82 376.344 3.14C376.024 3.44667 375.618 3.6 375.124 3.6ZM376.504 4.92V16H373.704V4.92H376.504ZM382.531 7.22V12.58C382.531 12.9533 382.617 13.2267 382.791 13.4C382.977 13.56 383.284 13.64 383.711 13.64H385.011V16H383.251C380.891 16 379.711 14.8533 379.711 12.56V7.22H378.391V4.92H379.711V2.18H382.531V4.92H385.011V7.22H382.531ZM397.325 10.22C397.325 10.62 397.298 10.98 397.245 11.3H389.145C389.211 12.1 389.491 12.7267 389.985 13.18C390.478 13.6333 391.085 13.86 391.805 13.86C392.845 13.86 393.585 13.4133 394.025 12.52H397.045C396.725 13.5867 396.111 14.4667 395.205 15.16C394.298 15.84 393.185 16.18 391.865 16.18C390.798 16.18 389.838 15.9467 388.985 15.48C388.145 15 387.485 14.3267 387.005 13.46C386.538 12.5933 386.305 11.5933 386.305 10.46C386.305 9.31333 386.538 8.30667 387.005 7.44C387.471 6.57333 388.125 5.90667 388.965 5.44C389.805 4.97333 390.771 4.74 391.865 4.74C392.918 4.74 393.858 4.96667 394.685 5.42C395.525 5.87333 396.171 6.52 396.625 7.36C397.091 8.18667 397.325 9.14 397.325 10.22ZM394.425 9.42C394.411 8.7 394.151 8.12667 393.645 7.7C393.138 7.26 392.518 7.04 391.785 7.04C391.091 7.04 390.505 7.25333 390.025 7.68C389.558 8.09333 389.271 8.67333 389.165 9.42H394.425ZM403.414 10.42C403.414 9.3 403.634 8.30667 404.074 7.44C404.527 6.57333 405.141 5.90667 405.914 5.44C406.687 4.97333 407.547 4.74 408.494 4.74C409.214 4.74 409.901 4.9 410.554 5.22C411.207 5.52667 411.727 5.94 412.114 6.46V1.2H414.954V16H412.114V14.36C411.767 14.9067 411.281 15.3467 410.654 15.68C410.027 16.0133 409.301 16.18 408.474 16.18C407.541 16.18 406.687 15.94 405.914 15.46C405.141 14.98 404.527 14.3067 404.074 13.44C403.634 12.56 403.414 11.5533 403.414 10.42ZM412.134 10.46C412.134 9.78 412.001 9.2 411.734 8.72C411.467 8.22667 411.107 7.85333 410.654 7.6C410.201 7.33333 409.714 7.2 409.194 7.2C408.674 7.2 408.194 7.32667 407.754 7.58C407.314 7.83333 406.954 8.20667 406.674 8.7C406.407 9.18 406.274 9.75333 406.274 10.42C406.274 11.0867 406.407 11.6733 406.674 12.18C406.954 12.6733 407.314 13.0533 407.754 13.32C408.207 13.5867 408.687 13.72 409.194 13.72C409.714 13.72 410.201 13.5933 410.654 13.34C411.107 13.0733 411.467 12.7 411.734 12.22C412.001 11.7267 412.134 11.14 412.134 10.46ZM416.969 10.42C416.969 9.3 417.189 8.30667 417.629 7.44C418.082 6.57333 418.689 5.90667 419.449 5.44C420.222 4.97333 421.082 4.74 422.029 4.74C422.855 4.74 423.575 4.90667 424.189 5.24C424.815 5.57333 425.315 5.99333 425.689 6.5V4.92H428.509V16H425.689V14.38C425.329 14.9 424.829 15.3333 424.189 15.68C423.562 16.0133 422.835 16.18 422.009 16.18C421.075 16.18 420.222 15.94 419.449 15.46C418.689 14.98 418.082 14.3067 417.629 13.44C417.189 12.56 416.969 11.5533 416.969 10.42ZM425.689 10.46C425.689 9.78 425.555 9.2 425.289 8.72C425.022 8.22667 424.662 7.85333 424.209 7.6C423.755 7.33333 423.269 7.2 422.749 7.2C422.229 7.2 421.749 7.32667 421.309 7.58C420.869 7.83333 420.509 8.20667 420.229 8.7C419.962 9.18 419.829 9.75333 419.829 10.42C419.829 11.0867 419.962 11.6733 420.229 12.18C420.509 12.6733 420.869 13.0533 421.309 13.32C421.762 13.5867 422.242 13.72 422.749 13.72C423.269 13.72 423.755 13.5933 424.209 13.34C424.662 13.0733 425.022 12.7 425.289 12.22C425.555 11.7267 425.689 11.14 425.689 10.46ZM451.369 4.92L448.129 16H445.109L443.089 8.26L441.069 16H438.029L434.769 4.92H437.609L439.569 13.36L441.689 4.92H444.649L446.729 13.34L448.689 4.92H451.369ZM463.184 10.22C463.184 10.62 463.157 10.98 463.104 11.3H455.004C455.071 12.1 455.351 12.7267 455.844 13.18C456.337 13.6333 456.944 13.86 457.664 13.86C458.704 13.86 459.444 13.4133 459.884 12.52H462.904C462.584 13.5867 461.971 14.4667 461.064 15.16C460.157 15.84 459.044 16.18 457.724 16.18C456.657 16.18 455.697 15.9467 454.844 15.48C454.004 15 453.344 14.3267 452.864 13.46C452.397 12.5933 452.164 11.5933 452.164 10.46C452.164 9.31333 452.397 8.30667 452.864 7.44C453.331 6.57333 453.984 5.90667 454.824 5.44C455.664 4.97333 456.631 4.74 457.724 4.74C458.777 4.74 459.717 4.96667 460.544 5.42C461.384 5.87333 462.031 6.52 462.484 7.36C462.951 8.18667 463.184 9.14 463.184 10.22ZM460.284 9.42C460.271 8.7 460.011 8.12667 459.504 7.7C458.997 7.26 458.377 7.04 457.644 7.04C456.951 7.04 456.364 7.25333 455.884 7.68C455.417 8.09333 455.131 8.67333 455.024 9.42H460.284ZM468.028 6.54C468.388 6.00667 468.881 5.57333 469.508 5.24C470.148 4.90667 470.874 4.74 471.688 4.74C472.634 4.74 473.488 4.97333 474.248 5.44C475.021 5.90667 475.628 6.57333 476.068 7.44C476.521 8.29333 476.748 9.28667 476.748 10.42C476.748 11.5533 476.521 12.56 476.068 13.44C475.628 14.3067 475.021 14.98 474.248 15.46C473.488 15.94 472.634 16.18 471.688 16.18C470.861 16.18 470.134 16.02 469.508 15.7C468.894 15.3667 468.401 14.94 468.028 14.42V16H465.228V1.2H468.028V6.54ZM473.888 10.42C473.888 9.75333 473.748 9.18 473.468 8.7C473.201 8.20667 472.841 7.83333 472.388 7.58C471.948 7.32667 471.468 7.2 470.948 7.2C470.441 7.2 469.961 7.33333 469.508 7.6C469.068 7.85333 468.708 8.22667 468.428 8.72C468.161 9.21333 468.028 9.79333 468.028 10.46C468.028 11.1267 468.161 11.7067 468.428 12.2C468.708 12.6933 469.068 13.0733 469.508 13.34C469.961 13.5933 470.441 13.72 470.948 13.72C471.468 13.72 471.948 13.5867 472.388 13.32C472.841 13.0533 473.201 12.6733 473.468 12.18C473.748 11.6867 473.888 11.1 473.888 10.42ZM480.022 16.14C479.516 16.14 479.096 15.9867 478.762 15.68C478.442 15.36 478.282 14.9667 478.282 14.5C478.282 14.0333 478.442 13.6467 478.762 13.34C479.096 13.02 479.516 12.86 480.022 12.86C480.516 12.86 480.922 13.02 481.242 13.34C481.562 13.6467 481.722 14.0333 481.722 14.5C481.722 14.9667 481.562 15.36 481.242 15.68C480.922 15.9867 480.516 16.14 480.022 16.14Z" fill="#DD51CB"/>
</svg>
